<?xml version="1.0" encoding="UTF-8"?>
<svg xmlns="http://www.w3.org/2000/svg" xmlns:xlink="http://www.w3.org/1999/xlink" viewBox="0 0 2830.54 1127.04">
  <defs>
    <style>
      .cls-1 {
        fill: #fff;
      }

      .cls-2 {
        fill: #04f4f1;
      }

      .cls-3 {
        fill: #e0b559;
      }

      .cls-4 {
        fill: #cf383b;
      }

      .cls-5 {
        fill: #08c8df;
      }

      .cls-6 {
        fill: #fba92b;
      }

      .cls-7 {
        fill: #d1383c;
      }

      .cls-8 {
        fill: #753b15;
      }

      .cls-9 {
        fill: #dee6f5;
        opacity: .73;
      }

      .cls-10 {
        fill: #e2e6eb;
      }

      .cls-11 {
        opacity: .65;
      }

      .cls-12 {
        fill: #c6863f;
      }

      .cls-13 {
        fill: #04deea;
      }

      .cls-14 {
        fill: #4a8d32;
      }

      .cls-15 {
        fill: #dae2e5;
      }

      .cls-16, .cls-17 {
        fill: #f3d97a;
      }

      .cls-18 {
        fill: #f35c3f;
      }

      .cls-19 {
        fill: #e3a257;
      }

      .cls-20 {
        fill: #0a3d42;
      }

      .cls-21 {
        letter-spacing: -.15em;
      }

      .cls-17 {
        font-family: LEMONMILK-Regular, 'LEMON MILK';
        font-size: 308.01px;
      }

      .cls-22 {
        fill: url(#linear-gradient);
      }

      .cls-23 {
        fill: #d12f23;
      }
    </style>
    <linearGradient id="linear-gradient" x1="905.8" y1="538" x2="1981.8" y2="538" gradientTransform="translate(905.8 1981.8) rotate(-90)" gradientUnits="userSpaceOnUse">
      <stop offset="0" stop-color="#cce0f4"/>
      <stop offset=".48" stop-color="#c9dff4"/>
      <stop offset=".49" stop-color="#c6ddf3"/>
      <stop offset=".58" stop-color="#93caea"/>
      <stop offset=".68" stop-color="#69b9e3"/>
      <stop offset=".77" stop-color="#48acde"/>
      <stop offset=".85" stop-color="#31a3da"/>
      <stop offset=".93" stop-color="#229dd7"/>
      <stop offset="1" stop-color="#1e9cd7"/>
    </linearGradient>
  </defs>
  <g id="Sky">
    <rect class="cls-22" x="483.8" y="0" width="1920" height="1076"/>
  </g>
  <g id="Paradise">
    <g class="cls-11">
      <text class="cls-17" transform="translate(685.08 342.23)"><tspan class="cls-21" x="0" y="0">P</tspan><tspan x="151.45" y="0">ARADISE</tspan></text>
    </g>
  </g>
  <g id="Cloud1">
    <path class="cls-9" d="M207.5,329.57c274.29-1.65,277.37,3.43,173.33-15.57,0,0,88.26-34.61-48.89-26.81,0,0,71.85-40.19,36.85-64.19s-118.63,37-118.63,37c0,0,10.59-71-104.89,39,0,0-365.08,33.14,62.22,30.57Z"/>
  </g>
  <g id="Cloud_2">
    <path class="cls-9" d="M2596.8,171s361.99,1.84,185-12.58l-93.73-7.53s64.73-26.89,45.73-46.89-92,1-98,11c0,0,27-58-52-34,0,0-21,1-36,15,0,0-70-24-84,20,0,0-10.78,21.78,80.11,34.89,0,0-312.11,21.11,52.89,20.11Z"/>
  </g>
  <g id="Water1">
    <path class="cls-2" d="M305.09,477.49c967.71-44.49,522.22,6.5,1062.71-3.49,540.48-9.98,210-33,958.51-31.48,359.54.73,289.89,27.48,289.89,27.48l-8.89,604.25-2268.52,17.75-33.71-614.51Z"/>
  </g>
  <g id="Water4">
    <path class="cls-2" d="M363.8,499.86s73.24-10.59,337.62-2.22,308.38-49.22,742.38-41.93,751.27,24.9,992.64,8.59-32.64,614.7-32.64,614.7H483.8l-120-579.14Z"/>
  </g>
  <g id="Water2">
    <path class="cls-13" d="M347.13,577.05c28.37-4.06,441.37-25.81,565.37-2.43s-78.84,34.38,93.29,38.38,492,8,425.33-.24c-134.08-16.58-203-52.7,74.37-50.76s236.92,11.04,268.29,0-79-14.78,71.71-31c150.71-16.22,568.29,7,568.29,7l5.33,540H401.8l-54.67-500.94Z"/>
  </g>
  <g id="Water3">
    <path class="cls-5" d="M342.43,621s277.37-40.65,409.37-23.33,212.4,13.68,51,71.33c-28,10,455.59-22.48,518.29-12.24s85.71,23.24-5.29,60.24,351.26,8,306.63-16c-44.63-24-43.63-44,101.37-41s-51.74-15,34.63-26c86.37-11,233.85-59.08,711.11-45.04,477.26,14.04-65.74,489.04-65.74,489.04H473.09l-130.67-457Z"/>
  </g>
  <g id="Boat">
    <path class="cls-20" d="M1011.05,487.7c2.18,0,43.5-2.18,43.5-2.18,0,0-2.31,9.21-21.82,8.95s-21.69-6.78-21.69-6.78Z"/>
    <polygon class="cls-20" points="1031.7 490 1024.1 458.33 1029.04 490 1031.7 490"/>
    <path class="cls-20" d="M1035.8,462l-11.7-3.67,5.44,28.28s17.14-1.77,6.26-24.61Z"/>
  </g>
  <g id="Boat_Water">
    <path class="cls-2" d="M1005.44,496.24c32.36-2.24,47.36-7.24,50.36-3.24s-3,8.62-3,8.62l-47.36-5.38Z"/>
  </g>
  <g id="Sand1">
    <path class="cls-16" d="M483.8,628s115-22,269,4-227,54,152,55,456-13,360,35,424,16,424,16c0,0,70-8-25-31s505-3,503-32-238,7-238-25,475-37.24,475-37.24v465.24H483.8v-450Z"/>
  </g>
  <g id="Sand2">
    <path class="cls-19" d="M363.8,838.07c22-6.11,695-121.08,843-77.05s-84.56,6.25-125.28,100.96c-20.44,47.54-9.27,57.05,6.92,54.72,17.34-2.49,34.99,3.44,46.31,16.81,13.91,16.44,46.41,32.67,120.77,31.86,234.3-2.55,148.28-49.04,242.28-24.58,94,24.46,576.44,12.23,343.72-40.36-232.72-52.59-364.95-44.03-61.33-80.72,303.61-36.69,623.61-51.65,623.61-51.65v310.93H483.8l-120-240.93Z"/>
  </g>
  <g id="Sand3">
    <path class="cls-12" d="M373.8,973.4c85-16.4,512-31.4,689-12.4s314.44,12.52,334.72,1.76,8.28,22.24,8.28,22.24c0,0-42,105,224,58s323.44-95.75,543.72-90.87c0,0-203.61-29.15-6.67-38.14,196.95-8.99,286.67-5.99,286.67-5.99l-49.72,170H483.8l-110-104.6Z"/>
  </g>
  <g id="LeftTree">
    <path class="cls-8" d="M435.41,1076c17.61-320,273.39-803,197.39-725s-259,529.53-259,529.53l61.61,195.47Z"/>
  </g>
  <g id="LLeaf7">
    <path class="cls-14" d="M620.31,349.59s15.16-85.3,27.07-103.41l1.71,21.4s20.84-68.97,42.51-80.69l-4.39,15.68s48.75-51.38,70.59-49.46c0,0-33.88,55.38-37.9,78.31l6.42-8.66s.37,17.48-16.21,34.49l-20.34,24.98s6.09,1.21,9.27-3.2-27.24,57.38-78.72,70.58Z"/>
  </g>
  <g id="LLeaf1">
    <path class="cls-14" d="M617.97,342.6s-98.61-49.61-148.89,40.39l14.72-6.94s-30.12,29.94-36.06,53.94l14.06-8s-20,28-17,55l6-7s-3,45,15,85c0,0,1-37,5-55l4,5s-3-49,7-65c0,0,3,17,9,22,0,0,7.07-34.65,19.54-50.83,0,0-.32,11.83,4.07,18.83,0,0,21.72-61,27.56-56,0,0-7.16,19-3.16,26,0,0,47.33-64.79,79.16-57.39Z"/>
  </g>
  <g id="LLeaf2">
    <path class="cls-14" d="M634.64,359.56s-36.63-104.13-135.27-74.17l15.42,5.22s-42.46.68-63.39,13.84l15.68,3.99s-33.83,6.3-50.39,27.83l9.18-.88s-33.37,30.33-48.15,71.63c0,0,26.38-25.96,41.75-36.15l-.59,6.38s31.83-37.38,50.13-41.97c0,0-9.63,14.33-8.78,22.09,0,0,29.13-20.06,49.33-23.06,0,0-8.43,8.3-10.12,16.39,0,0,57.96-28.88,58.69-21.23,0,0-18.34,8.72-20.31,16.53,0,0,79.03-13.84,96.84,13.57Z"/>
  </g>
  <g id="LLeaf3">
    <path class="cls-14" d="M621.26,362.41s53.3-96.67-34.74-150.31l6.38,14.98s-28.78-31.23-52.54-38.07l7.46,14.35s-27.22-21.04-54.32-19.07l6.77,6.26s-44.85-4.7-85.51,11.78c0,0,36.94,2.4,54.77,7.08l-5.15,3.81s49.08-1.15,64.69,9.45c0,0-17.1,2.36-22.32,8.16,0,0,34.36,8.38,50.05,21.44,0,0-11.81-.76-18.97,3.36,0,0,60.14,24.01,54.92,29.65,0,0-18.72-7.88-25.86-4.15,0,0,62.95,49.74,54.36,81.28Z"/>
  </g>
  <g id="LLeaf4">
    <path class="cls-14" d="M644.56,356.19s128.69,29.34,115.76,146.16l-9.44-17.05s8.59,48.8-2.05,74.41l-8.08-17.5s.17,39.58-21.11,61.21l-1.01-10.64s-27.77,41.99-72.34,63.97c0,0,24.24-33.43,32.66-52.31l-7.26,1.45s36.27-41.07,37.54-62.62c0,0-14.47,12.79-23.65,12.76,0,0,16.8-35.87,15.83-59.4,0,0-7.75,10.69-16.75,13.61,0,0,20.65-70.01,11.63-69.92,0,0-6.05,22.1-14.67,25.32,0,0-1.41-92.36-37.08-109.45Z"/>
  </g>
  <g id="LLeaf5">
    <path class="cls-14" d="M639.65,358.19s51.15-79.19,178.82,34.82l-17.85-6.66s37.43,30.83,45.86,56.69l-17.13-7.86s25.32,29.35,23.33,59.05l-7.52-7.27s6.15,48.99-12.87,93.84c0,0-3.32-40.38-9.1-59.8l-4.45,5.72s.73-53.74-12.05-70.6c0,0-2.57,18.77-9.4,24.61,0,0-10.38-37.43-26.09-54.33,0,0,1.06,12.91-3.74,20.83,0,0-29.27-65.31-35.9-59.48,0,0,9.59,20.32,5.25,28.22,0,0-41.01-57.96-97.15-57.77Z"/>
  </g>
  <g id="LLeaf6">
    <path class="cls-14" d="M656.47,360.71s-23.69-62.08,92.19-105.12l-10.99,9.35s32.52-13.55,50.46-9.81l-11.37,8.44s26.77-6.12,42.63,5.86l-7.14,2.33s30.01,13.55,47.46,42.17c0,0-24.02-12.31-37.28-15.49l1.4,4.98s-29.88-19.78-44.54-17.43c0,0,9.49,8.43,10,15.02,0,0-25.24-6.61-41.1-2.35,0,0,7.68,3.94,10.18,9.94,0,0-48.56-4.2-47.98,2.25,0,0,15.3.99,17.98,6.68,0,0-49.2,6.16-71.9,43.16Z"/>
  </g>
  <g id="Layer_20">
    <path class="cls-8" d="M2444.19,908c-15.04-278.41-233.44-698.64-168.55-630.78s221.16,460.72,221.16,460.72l-52.61,170.06Z"/>
  </g>
  <g id="RLeaf7">
    <path class="cls-14" d="M2269.35,292.46s22.67-71.84,20.89-90.52l-9.86,15.86s11.82-61.46.09-79.03l-2.95,13.83s-16.38-58.85-33.7-65.94c0,0,3.51,56.09-2.63,75.38l-1.4-9.22s-7.28,13.35-1.52,33.01l5.41,27.28s-5.1-1.46-5.74-6.12c-.64-4.66-2.33,55.02,31.41,85.45Z"/>
  </g>
  <g id="RLeaf1">
    <path class="cls-14" d="M2291.79,281.47s-43.67-68.89-152.69,30.3l15.25-5.79s-31.96,26.83-39.16,49.32l14.62-6.84s-21.62,25.54-19.92,51.37l6.42-6.33s-5.26,42.63,10.99,81.64c0,0,2.84-35.13,7.77-52.03l3.8,4.97s-.62-46.76,10.29-61.43c0,0,2.2,16.33,8.02,21.41,0,0,8.87-32.57,22.28-47.27,0,0-.91,11.23,3.19,18.12,0,0,24.99-56.82,30.65-51.75,0,0-8.19,17.68-4.49,24.55,0,0,35.01-50.42,82.96-50.26Z"/>
  </g>
  <g id="RLeaf2">
    <path class="cls-14" d="M2273.07,324.67s32.94-47.35-53.7-108.07l7.09,10.2s-23.99-18.28-39.65-18.91l7.6,9.52s-20.83-10.8-36.53-4.05l5.41,3.47s-27.74,5.09-48.33,25.54c0,0,22.52-5.32,34.17-5.2l-2.23,3.9s28.97-10.37,40.6-5.3c0,0-9.67,5.11-11.5,10.55,0,0,22.3-.25,34.52,6.69,0,0-7.2,1.7-10.56,6.24,0,0,41.08,6.7,39.22,12.02,0,0-12.88-2.39-16.31,1.84,0,0,39.39,15.57,50.22,51.55Z"/>
  </g>
  <g id="RLeaf3">
    <path class="cls-14" d="M2280.26,292.3s-39.59-87.05,38.63-128.41l-6.33,12.62s26.39-25.4,47.04-29.94l-7.22,12.01s24.46-16.66,47.42-13.34l-6.14,5.03s38.49-1.43,72.13,15.27c0,0-31.61-.1-47.08,2.91l4.16,3.61s-41.74-3.89-55.67,4.39c0,0,14.43,3.05,18.53,8.4,0,0-29.77,5.24-43.93,15.66,0,0,10.1.03,15.96,4.03,0,0-52.67,17.29-48.56,22.5,0,0,16.42-5.73,22.28-2.07,0,0-56.62,39.46-51.19,67.34Z"/>
  </g>
  <g id="RLeaf4">
    <path class="cls-14" d="M2274.07,284.67s31.28-90.6,115.51-64.53l-13.17,4.54s36.25.59,54.12,12.04l-13.38,3.47s28.89,5.48,43.03,24.21l-7.84-.77s28.5,26.39,41.12,62.32c0,0-22.53-22.59-35.65-31.45l.5,5.55s-27.18-32.52-42.8-36.51c0,0,8.22,12.46,7.49,19.22,0,0-24.87-17.45-42.12-20.07,0,0,7.2,7.22,8.65,14.26,0,0-49.49-25.12-50.12-18.47,0,0,15.66,7.58,17.35,14.39,0,0-67.48-12.04-82.69,11.8Z"/>
  </g>
  <g id="RLeaf5">
    <path class="cls-14" d="M2288.31,269.92s84.2-43.16,127.13,35.15l-12.57-6.04s25.72,26.05,30.79,46.93l-12-6.96s17.08,24.36,14.52,47.85l-5.12-6.09s2.56,39.15-12.81,73.95c0,0-.85-32.19-4.27-47.85l-3.42,4.35s2.56-42.63-5.98-56.55c0,0-2.56,14.79-7.68,19.14,0,0-6.04-30.15-16.68-44.22,0,0,.27,10.29-3.48,16.38,0,0-18.55-53.07-23.53-48.72,0,0,6.12,16.53,2.7,22.62,0,0-40.41-56.37-67.6-49.94Z"/>
  </g>
  <g id="RLeaf6">
    <path class="cls-14" d="M2264.01,274.63s-95.68,59.76-52.3,152.34l2.82-16.65s6.82,42.54,22.63,60.68l1.59-16.64s11.02,32.62,34.31,44.54l-2.19-9.03s34.27,26.87,76.47,32.64c0,0-29.01-20.81-41.13-34.01l6.27-.81s-40.88-23.77-47.99-41.16c0,0,15.29,6.53,22.7,3.96,0,0-23.68-24.87-29.53-44.51,0,0,9.27,6.65,17.36,6.57,0,0-36.42-51.91-29.11-54.33,0,0,11.12,16.52,18.99,16.78,0,0-24.9-76.41-.91-100.35Z"/>
  </g>
  <g id="RCoconut1">
    <ellipse class="cls-3" cx="2295.28" cy="292.01" rx="21.35" ry="21.75"/>
  </g>
  <g id="RCocounut2">
    <ellipse class="cls-3" cx="2263.94" cy="311.98" rx="25.49" ry="25.98"/>
  </g>
  <g id="LCoconut1">
    <circle class="cls-3" cx="634.8" cy="402" r="28"/>
  </g>
  <g id="LCoconut2">
    <circle class="cls-3" cx="609.8" cy="368" r="25"/>
  </g>
  <g id="LCoconut3">
    <circle class="cls-3" cx="651.8" cy="356" r="27"/>
  </g>
  <g id="LifePreserver">
    <path class="cls-23" d="M871.8,571c-98.86,0-179,80.14-179,179s80.14,179,179,179,179-80.14,179-179-80.14-179-179-179ZM871.8,866c-64.07,0-116-51.93-116-116s51.93-116,116-116,116,51.93,116,116-51.93,116-116,116Z"/>
    <polygon class="cls-15" points="946.8 666 1000.8 621 1032.8 662 973.8 701 946.8 666"/>
    <polygon class="cls-15" points="740.8 624 788.07 669.71 824.78 646.86 788.8 586 740.8 624"/>
    <polygon class="cls-15" points="771.8 802 719.8 853 768.8 904 797.59 839.16 771.8 802"/>
    <polygon class="cls-15" points="935.45 845.38 966.8 908 1024.34 853 968.8 808 935.45 845.38"/>
    <path class="cls-15" d="M848.57,880.11c-46.55,0-70.41-48.2-79.86-67.31-.63-1.27-1.2-2.43-1.72-3.45-3.79-7.47-2.06-12.61-.38-17.57,2.69-7.98,5.75-17.01-17.07-43.08-9.16-10.46-12.88-21.94-11.06-34.09,4.63-30.87,43.36-55.14,45.01-56.16l1.28-.79.97.41c1,.03,8.98-.26,29.25-15.46,23.05-17.29,53.12-19.11,86.97-5.27,28.07,11.48,52.82,31.14,66.62,45.71,21.56,22.77,16.38,45.01,9.83,73.17-1.99,8.56-4.05,17.42-5.66,27.27-2.65,16.29.24,28.26,2.34,37,1.85,7.66,3.31,13.71,0,18.66-3.03,4.54-9.36,7.21-21.86,9.2-18.14,2.89-26.79,7.34-36.82,12.49-11.58,5.95-24.71,12.7-55.11,18.12-4.43.79-8.68,1.16-12.75,1.16ZM785.85,664.07c-5.51,3.61-37.57,25.63-41.43,51.45-1.55,10.33,1.7,20.17,9.64,29.24,25.09,28.67,21.29,39.91,18.24,48.95-1.51,4.48-2.6,7.71.04,12.94.53,1.04,1.11,2.21,1.75,3.5,9.79,19.78,31.66,63.97,74.41,63.97,3.76,0,7.68-.34,11.77-1.07,29.52-5.27,42.22-11.8,53.42-17.55,10.04-5.16,19.53-10.04,38.61-13.08,10.24-1.63,15.9-3.73,17.81-6.6,1.84-2.76.71-7.44-.85-13.92-2.23-9.24-5.28-21.9-2.43-39.38,1.64-10.05,3.72-19.01,5.73-27.67,6.38-27.44,11-47.26-8.34-67.69-13.37-14.12-37.34-33.16-64.53-44.28-22.17-9.06-54.23-15.63-81.1,4.52-19.65,14.74-29.11,16.67-32.71,16.67-.01,0-.02,0-.04,0Z"/>
    <path class="cls-15" d="M859.24,915.34c-57.8,0-92.4-6.72-102.9-20-6.4-8.1-12.34-16.25-17.58-23.44-8.98-12.33-20.19-27.67-23.93-27.23-.19.02-.71.44-1.28,1.84l-.09.19c-2.53,5.13-7.6,13.46-13.13,11.71-4.36-1.38-6.01-7.78-5.7-22.09.33-15.29,3.09-39.45,8.2-71.79,20.12-127.44,44.96-147.2,64.91-163.08,1.03-.82,2.06-1.64,3.06-2.46,22.32-18.13,40.25-24.26,61.9-21.17,8.75,1.25,11.13,3.24,14.01,6.37,3.33,3.62,8.35,9.08,49.56,15.85,7.62,1.25,14.78,2.35,21.7,3.41,53.38,8.2,85.59,13.15,111.71,55.98l.29.48.1.55c1.01,5.64,24.29,138.75-9.32,194.08-32.84,54.06-62.14,55.92-65.1,55.96-2.81.28-44.83,4.38-89.2,4.79-2.45.02-4.86.03-7.23.03ZM714.94,838.67c6.73,0,14.25,9.89,28.67,29.7,5.21,7.15,11.1,15.25,17.44,23.25,19.58,24.77,146.8,17.72,194.16,12.91l.18-.02h.18c.25,0,28.2-.59,60.08-53.07,31.38-51.66,10.26-179.85,8.64-189.37-24.6-40-54.01-44.52-107.2-52.69-6.94-1.07-14.11-2.17-21.76-3.42-43.26-7.1-48.89-13.23-53.01-17.71-1.98-2.16-3.18-3.46-10.44-4.5-20.06-2.86-36.12,2.72-57.27,19.89-1.02.83-2.06,1.66-3.11,2.49-19.14,15.23-42.97,34.19-62.72,159.33-11.32,71.69-8.03,84.67-6.63,86.99,1.42-.94,4.1-4.67,5.91-8.32,1.7-4.07,4.23-5.2,6.07-5.42.27-.03.55-.05.82-.05Z"/>
  </g>
  <g id="PreserverSand">
    <path class="cls-19" d="M907.8,929s-17.79-29-76-30-80,26-80,26l156,4Z"/>
    <path class="cls-19" d="M1000.8,922.44s-95.08-42.07-148.49-9.56l-6.51,19.12,155-9.56Z"/>
  </g>
  <g id="Crab">
    <ellipse class="cls-18" cx="1999.45" cy="816.88" rx="31.53" ry="23.7"/>
    <path class="cls-18" d="M1987.68,790.62l2.6,4.42-2.68,2.61-2.35-6.27c-.11,0-.22.01-.34.01-2.96,0-5.37-2.4-5.37-5.37s2.4-5.37,5.37-5.37,5.37,2.4,5.37,5.37c0,1.95-1.04,3.66-2.6,4.6Z"/>
    <path class="cls-18" d="M2008.98,790.17l-2.6,4.42,2.68,2.61,2.35-6.27c.11,0,.22.01.34.01,2.96,0,5.37-2.4,5.37-5.37s-2.4-5.37-5.37-5.37-5.37,2.4-5.37,5.37c0,1.95,1.04,3.66,2.6,4.6Z"/>
    <path class="cls-1" d="M1989.39,786.02c0,2.47-2,4.47-4.47,4.47s-4.47-2-4.47-4.47c0-1.18.46-2.25,1.21-3.05l1.02.26,3.93,1,2.64.67c.09.36.14.73.14,1.12Z"/>
    <path d="M1988.49,786.12c-.05,1.93-1.63,3.47-3.57,3.47s-3.58-1.6-3.58-3.58c0-1.13.52-2.13,1.34-2.79l3.93,1c-.21.24-.34.55-.34.89,0,.74.6,1.34,1.34,1.34.34,0,.65-.13.89-.34Z"/>
    <path class="cls-1" d="M2007.27,785.57c0,2.47,2,4.47,4.47,4.47s4.47-2,4.47-4.47c0-1.18-.46-2.25-1.21-3.05l-1.02.26-3.93,1-2.64.67c-.09.36-.14.73-.14,1.12Z"/>
    <path d="M2008.17,785.67c.05,1.93,1.63,3.47,3.57,3.47s3.58-1.6,3.58-3.58c0-1.13-.52-2.13-1.34-2.79l-3.93,1c.21.24.34.55.34.89,0,.74-.6,1.34-1.34,1.34-.34,0-.65-.13-.89-.34Z"/>
    <path d="M2009.51,805.68c-.29.1-.61-.02-.77-.28-.64-1.04-2.82-3.46-9.28-3.38-6.22.08-7.92,2.31-8.36,3.28-.12.26-.41.41-.69.38h0c-.44-.05-.72-.51-.54-.92.61-1.38,2.67-3.98,9.58-4.08,7-.09,9.59,2.65,10.44,4.02.23.37.05.85-.36.99h0Z"/>
  </g>
  <g id="LLeg1">
    <path class="cls-18" d="M1972.16,840.73l-.19.12c-.61.39-1.42.19-1.78-.44h0c-.14-.25-.2-.55-.15-.83.9-5.41,2.96-9.31,6.14-11.6,2.4-1.73,4.86-2.1,6.38-2.13.79-.02,1.39.7,1.26,1.47l-.03.17c-.1.6-.62,1.03-1.22,1.04-1.13.03-3.01.31-4.86,1.66-2.53,1.85-4.21,5.1-4.99,9.69-.06.35-.26.66-.56.86Z"/>
  </g>
  <g id="LLeg2">
    <path class="cls-18" d="M1962.32,836.7l-.19.12c-.61.39-1.42.19-1.78-.44h0c-.14-.25-.2-.55-.15-.83.9-5.41,2.96-9.31,6.14-11.6,2.4-1.73,4.86-2.1,6.38-2.13.79-.02,1.39.7,1.26,1.47l-.03.17c-.1.6-.62,1.03-1.22,1.04-1.13.03-3.01.31-4.86,1.66-2.53,1.85-4.21,5.1-4.99,9.69-.06.35-.26.66-.56.86Z"/>
  </g>
  <g id="LLeg3">
    <path class="cls-18" d="M1957.6,828.56l-.19.12c-.61.39-1.42.19-1.78-.44h0c-.14-.25-.2-.55-.15-.83.9-5.41,2.96-9.31,6.14-11.6,2.4-1.73,4.86-2.1,6.38-2.13.79-.02,1.39.7,1.26,1.47l-.03.17c-.1.6-.62,1.03-1.22,1.04-1.13.03-3.01.31-4.86,1.66-2.53,1.85-4.21,5.1-4.99,9.69-.06.35-.26.66-.56.86Z"/>
  </g>
  <g id="RLeg1">
    <path class="cls-18" d="M2026.37,839.77l.19.12c.61.39,1.42.19,1.78-.44h0c.14-.25.2-.55.15-.83-.9-5.41-2.96-9.31-6.14-11.6-2.4-1.73-4.86-2.1-6.38-2.13-.79-.02-1.39.7-1.26,1.47l.03.17c.1.6.62,1.03,1.22,1.04,1.13.03,3.01.31,4.86,1.66,2.53,1.85,4.21,5.1,4.99,9.69.06.35.26.66.56.86Z"/>
  </g>
  <g id="RLeg2">
    <path class="cls-18" d="M2036.2,835.75l.19.12c.61.39,1.42.19,1.78-.44h0c.14-.25.2-.55.15-.83-.9-5.41-2.96-9.31-6.14-11.6-2.4-1.73-4.86-2.1-6.38-2.13-.79-.02-1.39.7-1.26,1.47l.03.17c.1.6.62,1.03,1.22,1.04,1.13.03,3.01.31,4.86,1.66,2.53,1.85,4.21,5.1,4.99,9.69.06.35.26.66.56.86Z"/>
  </g>
  <g id="RLeg3">
    <path class="cls-18" d="M2040.92,827.6l.19.12c.61.39,1.42.19,1.78-.44h0c.14-.25.2-.55.15-.83-.9-5.41-2.96-9.31-6.14-11.6-2.4-1.73-4.86-2.1-6.38-2.13-.79-.02-1.39.7-1.26,1.47l.03.17c.1.6.62,1.03,1.22,1.04,1.13.03,3.01.31,4.86,1.66,2.53,1.85,4.21,5.1,4.99,9.69.06.35.26.66.56.86Z"/>
  </g>
  <g id="LArm">
    <path class="cls-18" d="M1977.31,801.22c-.89-.45-6.71-3.58-7.16-6.26,0,0,8.5-13.86-3.58-17.44-12.07-3.58,6.26,12.52-4.02,8.94-10.29-3.58-8.05-11.63-10.29,0-2.24,11.63,12.07,12.73,15.65,10.16,0,0,4.47,6.83,7.16,7.28s2.24-2.68,2.24-2.68Z"/>
  </g>
  <g id="RArm">
    <path class="cls-18" d="M2021.82,801.22c.89-.45,6.71-3.58,7.16-6.26,0,0-8.5-13.86,3.58-17.44,12.07-3.58-6.26,12.52,4.02,8.94,10.29-3.58,8.05-11.63,10.29,0s-12.07,12.73-15.65,10.16c0,0-4.47,6.83-7.16,7.28s-2.24-2.68-2.24-2.68Z"/>
  </g>
  <g id="Surfboard">
    <path class="cls-6" d="M1928.11,916.28s-4.58-364.31,79.56-474.29c80.24-104.9,106.76-36.76,89.49,370.5-1.72,40.46-9.6,80.42-23.35,118.52h0s-145.69-14.72-145.69-14.72Z"/>
  </g>
  <g id="SurfboardSand">
    <path class="cls-19" d="M1881.74,900.55c80.06-39.55,80.94-12.45,128,0,47.06,12.45,53.5-12.45,81.78,0,28.28,12.45-17.72,30.45-17.72,30.45,0,0-160.2,23.59-169.6-6.7l-22.46-23.74Z"/>
  </g>
  <g id="Leaf1">
    <path class="cls-14" d="M2490.05,1085.8l-3.06,3.32c-.29-.2-16.79-11.22-45.37-24.93-2.25,5.85-6.54,16.8-11.43,27.78-12.79,28.74-18.86,34-22.68,35-.11.03-.22.05-.33.07l-.74-3.99h.05c1.06-.29,6.36-3.2,19.32-32.3,5.13-11.52,9.61-23.01,11.71-28.52-1.35-.63-2.71-1.27-4.11-1.9-2.64,5.19-9.1,17.66-16.17,29.83-13.89,23.88-20.56,30.48-24.75,31.58-.99.26-1.83.22-2.61.02l1.61-3.96c-.05-.01-.09-.01-.11-.01.51-.04,5.54-1.27,22.39-30.46,6.96-12.05,13.2-24.16,15.59-28.85-1.46-.66-2.94-1.31-4.45-1.98-2.04,4.13-6.71,13.55-11.51,22.97-13.25,25.99-14.46,26.54-15.62,27.07l-1.93-3.61c-.25.12-.42.25-.49.3,2.44-2.61,16.51-30.36,25.44-48.52-1.71-.73-3.45-1.47-5.21-2.21-2.15,5.65-6.59,17.03-11.68,28.44-12.8,28.74-18.87,34-22.68,35-.11.03-.23.05-.34.08l-.75-4c.92-.21,6.17-2.64,19.38-32.29,5.28-11.84,9.86-23.65,11.87-28.97-1.19-.48-2.39-.97-3.61-1.46-2.71,5.31-9.09,17.61-16.08,29.64-13.89,23.88-20.56,30.48-24.75,31.58-.99.26-1.83.22-2.61.02l1.61-3.96c-.05-.01-.09-.01-.1-.02.51-.03,5.54-1.27,22.37-30.44,6.76-11.72,12.86-23.5,15.39-28.47-.15-.06-.3-.12-.45-.18-.28.27-.46.44-.53.49l-1.55-1.29c-.76-.3-1.52-.59-2.3-.89-10.85,36.41-42.52,58.94-43.89,59.9l-2.78-3.12c.33-.23,32.18-22.94,42.37-58.4-.95-.35-1.91-.7-2.87-1.05-4.85,10.89-24.04,51.67-41.18,56.17l-.08.02-1-3.94h.05c13.19-3.47,31.14-38.39,37.96-53.78-1.74-.62-3.5-1.24-5.28-1.86-1.82,3.93-5.99,12.91-10.33,21.85-11.41,23.47-13.39,25.17-15,25.59-.1.03-.2.05-.31.07l-.78-3.99c-.49.11-.76.31-.83.36,2.58-2.38,14.67-27.29,22.98-45.34-2.23-.76-4.49-1.5-6.77-2.23-1.65,5-5.44,16.13-9.99,27.36-11.39,28.16-17.54,32.73-21.18,33.72l-1.08-3.92c1.41-.38,6.84-3.74,17.83-30.9,4.69-11.56,8.55-23,10.08-27.65-1.34-.43-2.68-.84-4.03-1.25-1.88,3.97-8.03,16.85-15.02,29.49-13.04,23.6-19.57,29.74-23.76,30.84-.8.21-1.52.23-2.18.16l.94-4.07s4.96.16,20.79-28.48c6.93-12.54,13.04-25.34,14.89-29.25-1.37-.41-2.74-.81-4.13-1.21-.58-.16-1.15-.33-1.73-.5-7.23,34.86-40.45,59.23-41.87,60.26l-2.84-3.08c.34-.24,33.66-24.71,40.23-58.34l.45.04c-2.44-.67-4.91-1.34-7.43-1.99-2.45,11.74-6.32,29.12-8.16,31.4l-3.78-2.19c1.15-2.1,4.6-16.67,7.45-30.35-1.21-.31-2.43-.61-3.67-.91-.5,3.73-1.69,12.08-3.39,20.65-4.75,24.03-8.84,26.47-10.38,27.38l-2.44-3.34c3.97-2.36,9.09-25.38,11.66-45.78-1.15-.27-2.3-.54-3.47-.8-.84,4.51-3.18,16.6-6.35,28.89-7.48,28.9-13,34.05-16.5,35.41l-1.63-3.74c1.35-.52,6.33-4.4,13.53-32.26,3.33-12.85,5.72-25.48,6.42-29.3-1.59-.35-3.19-.69-4.81-1.03-1.04,5.47-3.19,16.14-5.99,26.97-7.48,28.9-13.01,34.05-16.5,35.41l-1.63-3.73c1.35-.53,6.33-4.4,13.53-32.26,2.88-11.13,5.06-22.09,6.05-27.31-.68-.14-1.37-.28-2.05-.41-1.73,5.3-5.71,17.22-10.4,29.02-10.28,25.88-16.03,31.98-20.12,33.06-.54.14-1.05.19-1.54.19l.36-4.11c.06,0,5-.36,16.86-30.23,4.66-11.73,8.62-23.57,10.32-28.8-1.89-.36-3.81-.7-5.74-1.03-3.12,34.31-32.14,61.02-33.4,62.16l-3.27-2.73c.29-.27,29.42-27.11,32.04-60.22-1.77-.3-3.56-.58-5.36-.86-1.21,3.21-6.14,16.18-12.07,29.12-11.6,25.29-17.74,30.75-21.73,31.8-.37.1-.71.16-1.04.19l-.19-4.08c.56-.06,5.85-1.36,18.59-29.16,5.71-12.45,10.49-24.96,11.85-28.56-2.16-.31-4.34-.62-6.53-.9-.88,3.68-2.81,11.5-5.11,19.45-6.59,22.82-9.81,24.66-11.19,25.44l-2.35-3.39c3.08-2.04,9.57-23.01,14.06-42.09-2.09-.26-4.19-.51-6.31-.75-.89,4.8-3.19,16.54-6.28,28.48-7.47,28.9-13,34.04-16.5,35.4l-1.63-3.73c1.35-.53,6.33-4.41,13.54-32.28,3.09-11.95,5.37-23.7,6.25-28.35-.66-.07-1.31-.14-1.98-.2-1.54,4.76-5.72,17.39-10.68,29.88-10.28,25.88-16.03,31.99-20.12,33.06-.54.14-1.05.19-1.54.19l.36-4.11c.06,0,5-.35,16.86-30.23,4.79-12.07,8.84-24.25,10.46-29.23-1.95-.17-3.92-.34-5.9-.48-3.18,34.25-32.13,60.9-33.39,62.04l-3.28-2.72c.3-.27,29.09-26.8,32-59.65-1.89-.13-3.8-.24-5.71-.35-1.68,4.42-6.26,16.25-11.67,28.04-11.6,25.29-17.74,30.75-21.73,31.8-.37.1-.71.16-1.04.19l-.19-4.08c.57-.06,5.86-1.36,18.61-29.18,5.07-11.07,9.41-22.15,11.26-27.02-2.83-.13-5.69-.24-8.56-.32-1.6,4.43-6.03,16.24-12.02,27.93-9.16,17.86-18.1,28.01-26.63,30.25-1.23.32-2.47.48-3.68.48l.39-4.11c14.56.1,30.93-37.22,37.16-54.65-1.55-.03-3.11-.05-4.67-.06-3.38,8.57-19.01,44.7-43.96,51.25-.66.17-1.33.33-2.01.46l-.68-4.01c22.32-4.33,37.71-37.89,41.77-47.72-4.07,0-8.17.06-12.3.18-3.78,7.95-22.25,44.83-42.07,50.03-.5.13-.99.24-1.48.33l-.61-4.03c15.15-2.73,32.24-31.98,39.13-46.18-3.03.12-6.07.26-9.13.44-5.37,8.37-29.27,44.42-45.18,48.6-.79.21-1.56.34-2.31.38l.05-4.1c9.93-.57,30.09-26.34,41.98-44.54-2.66.18-5.34.39-8.02.61l-2.24,2.51c-13.97,15.65-36.03,40.41-54.41,45.23-2.94.77-5.79,1.03-8.49.66l1.07-4.06c16.58,2.26,44.2-28.51,57.8-43.75-6.66.66-13.4,1.48-20.19,2.46-3.94,5.48-22.65,29.72-51.26,37.22-4.45,1.17-9.13,1.93-14.04,2.16l.12-4.1c29.72-1.37,51.45-24.91,58.99-34.35-6.36,1-12.76,2.15-19.21,3.46-.77,4.99-5.45,15.55-30.1,22.01-1.32.35-2.69.68-4.12,1l-.84-3.98c23.23-5.2,28.82-13.6,30.12-18.02-10.11,2.16-20.33,4.71-30.64,7.67-2.65,2.98-14.12,15.25-26.84,18.58-2.8.73-5.65,1.04-8.47.71l.95-4.07c9.39,1.07,19.83-6.99,25.93-12.71-10.2,3.15-20.48,6.72-30.81,10.73l-1.63-3.74c13.45-5.23,27.08-9.82,40.87-13.75-14.66-.12-28.45,4.12-35.07,6.16-1.74.54-2.89.89-3.66,1.05l-.73-4c.5-.1,1.72-.48,3.14-.91,8.55-2.63,28.49-8.77,47.91-5.44,5.5-1.42,11.03-2.74,16.58-3.96-5.94-2.97-18.35-8.06-31.92-7.04l-.04-4.09c20.23-1.53,37.29,8.93,38.57,9.73,10.01-2.04,20.09-3.74,30.23-5.12l-.31-.22s-.03.03-.08.08c.06-.07.31-.45-.01-1.14-.72-1.55-5.54-6.94-37.31-10.96l1.03-4.07c24.87,3.15,38.61,7.73,40.83,13.62.29.77.36,1.48.32,2.11,6.63-.84,13.28-1.53,19.96-2.08-4.44-5.48-18.76-18.22-58.58-23.43l1.04-4.07c46.85,6.13,60.08,22.31,63,27.08,4.02-.28,8.05-.52,12.08-.7-6.19-7.55-22.98-26.67-38.13-31.82l1.99-3.84c18.46,6.26,38.03,30.44,41.92,35.43,1.96-.07,3.91-.12,5.88-.16-2.11-7.9-9.76-31.93-25.81-37l1.9-3.88c19.12,6.05,27.07,33.81,28.79,40.81,2.06-.02,4.12-.03,6.17-.02.99,0,1.97,0,2.97.03-.82-7.34-4.69-30.03-21.48-37.72l2.43-3.67c19.5,8.92,23.18,34.42,23.84,41.46,2.68.05,5.37.12,8.05.22-3.11-12.24-10.91-37.36-18.88-42.24l2.9-3.42c10.69,6.55,19,37.99,20.92,45.86,1.73.07,3.46.16,5.2.27-.78-4.19-2.44-12.69-4.63-21.24-5.77-22.49-9.66-23.96-10.08-24.06l1.48-3.98c3.13.68,7.45,4.37,13.21,26.87,2.46,9.59,4.26,19.12,4.9,22.7,1.14.07,2.27.15,3.42.24-1.48-17.03-5.47-42.85-10.79-46.82l3.22-3.2c8.12,6.06,11.6,41.49,12.35,50.39.76.07,1.53.13,2.3.2,1.46-6.16,5.1-26.9-5.86-47.53l4.3-1.95c11.55,21.75,7.87,43.09,6.22,49.9,1.65.16,3.29.33,4.94.5.37-3.21,1.47-13.35,1.93-23.69,1.02-23.47-2.25-25.78-2.63-25.96l2.55-3.62c2.77,1.37,5.8,5.95,4.78,29.44-.48,10.93-1.68,21.63-2,24.34,1.07.12,2.14.25,3.22.38,3.53-17.14,7.24-43.74,3.33-48.85l3.97-2.46c5.83,7.62-.69,42.07-2.71,51.89.84.1,1.69.22,2.53.33,3.55-6.75,11.86-25.62,7.64-47.26l4.64-.99c4.32,22.15-3.56,41.11-7.58,48.91,1.92.28,3.84.57,5.77.88,5.95-21.91,9.78-45.65,6.1-48.89l3.47-3.01c2.2,1.93,4.6,7.21.11,30.49-1.79,9.23-4.06,18.13-5.13,22.14,2.28.38,4.56.77,6.83,1.18,3.54-17.12,7.31-43.96,3.37-49.1l3.98-2.46c5.93,7.76-.94,43.32-2.81,52.4.77.14,1.54.29,2.31.44,3.32-6.16,12.32-25.54,7.95-47.87l4.64-.99c4.5,23.01-4.18,42.57-8.02,49.77,1.44.29,2.88.58,4.32.89,6.21-16.73,13.77-41.64,10.87-47.1l4.31-1.96c4.22,7.96-6.54,38.79-10.71,50.02,1.73.38,3.45.76,5.17,1.17,6.37-16.58,15.05-44.24,11.98-50.03l4.3-1.96c4.7,8.86-9.18,46.1-11.83,53.03.67.16,1.34.32,2.02.49,3.7-4.81,16.85-23.66,16.28-47.59l4.71-.4c.58,24.01-11.59,42.72-16.38,49.13,1.95.49,3.91,1,5.87,1.51,9.67-21.44,17.68-45.43,14.57-49.2l3.89-2.57c1.83,2.21,3.31,7.79-4.96,30.52-3.57,9.81-7.64,19.16-9.1,22.43,2.21.6,4.41,1.22,6.62,1.85,6.35-16.64,14.78-43.71,11.75-49.42l4.31-1.96c4.61,8.71-8.72,44.86-11.69,52.65.69.2,1.38.4,2.07.61,3.94-5.18,16.65-23.8,16.09-47.35l4.71-.4c.57,23.97-11.54,42.65-16.36,49.09.89.27,1.78.55,2.66.83,8.71-15.91,21.23-42.43,19.09-48.55l4.51-1.47c3.24,9.24-15.19,43.87-19.29,51.39.7.22,1.4.45,2.1.67,4.85-4.99,19.74-22.06,22.65-45.4l4.68.13c-2.92,23.36-16.83,40.38-22.84,46.77,1.87.62,3.7,1.25,5.53,1.87,12.47-20.16,23.53-42.66,21.07-46.73l4.2-2.13c1.46,2.43,2.09,8.17-9.42,30-4.48,8.5-9.31,16.57-11.62,20.36,2.14.76,4.25,1.52,6.32,2.29,8.64-16.03,20.19-40.89,18.14-46.79l4.51-1.47c3.05,8.71-13.15,39.98-18.46,49.83.83.31,1.66.62,2.48.94,5.75-6.25,18.74-22.49,21.44-44.13l4.69.14c-2.76,22.12-15.38,38.56-21.82,45.66,2.03.8,4.03,1.59,5.99,2.39,10.12-14.23,23.92-36.72,21.85-42.66l5.27-1.7c3.2,9.18-15.29,36.5-22.29,46.35,1.67.7,3.32,1.39,4.94,2.09,13.53-18.7,26.38-40.75,24.18-44.91l5.03-2.28c1.38,2.63,1.74,8.55-11.27,29.57-5.18,8.37-10.71,16.25-13.17,19.68,1.69.74,3.35,1.48,4.98,2.21,2.43-3.61,8.64-12.96,14.42-22.73,13.65-23.11,12.12-27.1,11.93-27.44.01.01.03.04.05.05l3.71-3.79c2.96,2.16,4.06,7.66-10.26,32.12-5.98,10.21-12.57,20.13-15.14,23.93,1.88.86,3.71,1.73,5.5,2.58l1.13.24s-.03.09-.09.25c29.52,14.09,46.58,25.51,46.88,25.71Z"/>
  </g>
  <g id="Leaf4">
    <path class="cls-14" d="M2491.68,914.79l-4.51.21c-.07-.34-4.02-19.78-14.66-49.65-5.72,2.57-16.48,7.32-27.68,11.67-29.32,11.4-37.33,10.87-40.75,8.89-.1-.06-.2-.12-.29-.18l2.28-3.36.05.03c.95.55,6.76,2.21,36.45-9.32,11.75-4.56,23.02-9.57,28.39-12.01-.51-1.4-1.03-2.81-1.58-4.25-5.53,1.83-18.9,6.13-32.49,9.8-26.68,7.18-36.06,7.17-39.81,5-.88-.51-1.45-1.14-1.87-1.83l3.93-1.67s-.06-.07-.07-.09c.39.34,4.83,3,37.34-5.87,13.43-3.66,26.38-7.86,31.38-9.51-.57-1.5-1.16-3-1.77-4.53-4.36,1.5-14.31,4.9-24.34,8.21-27.71,9.12-28.95,8.67-30.15,8.22l1.17-3.92c-.27-.09-.47-.12-.56-.13,3.56-.14,33.1-9.94,52.23-16.54-.69-1.72-1.41-3.47-2.15-5.24-5.51,2.5-16.67,7.45-28.32,11.98-29.32,11.39-37.34,10.86-40.75,8.89-.1-.06-.2-.12-.29-.19l2.28-3.36c.8.5,6.24,2.47,36.49-9.29,12.08-4.69,23.66-9.85,28.83-12.21-.51-1.18-1.02-2.37-1.53-3.58-5.66,1.86-18.86,6.11-32.28,9.73-26.68,7.18-36.06,7.17-39.81,5-.88-.51-1.45-1.14-1.87-1.83l3.93-1.67s-.06-.07-.06-.08c.38.33,4.83,3,37.32-5.87,13.06-3.56,25.68-7.64,30.97-9.38-.06-.15-.13-.29-.19-.44-.39,0-.63-.01-.72-.02l-.19-2.01c-.33-.75-.66-1.49-1-2.25-33.34,18.22-71.69,11.92-73.34,11.63l.23-4.17c.4.07,39,6.37,71.21-11.63-.43-.92-.86-1.84-1.3-2.77-11.11,4.32-53.45,19.76-68.79,10.89l-.07-.04,2.06-3.5.05.03c11.8,6.83,49.13-5.33,64.82-11.45-.8-1.67-1.61-3.35-2.44-5.03-4.06,1.51-13.34,4.95-22.72,8.24-24.62,8.63-27.23,8.44-28.67,7.61-.09-.05-.17-.11-.27-.16l2.26-3.38c-.42-.27-.76-.31-.85-.33,3.5.13,29.63-9.05,48.24-16.02-1.05-2.11-2.13-4.22-3.23-6.35-4.69,2.39-15.22,7.62-26.36,12.39-27.91,11.98-35.5,10.89-38.78,9.03l1.99-3.54c1.27.72,7.49,2.16,34.42-9.39,11.47-4.91,22.27-10.31,26.63-12.53-.65-1.25-1.31-2.48-1.98-3.72-4.13,1.5-17.57,6.32-31.43,10.37-25.87,7.58-34.84,7.34-38.59,5.17-.72-.42-1.24-.91-1.66-1.42l3.53-2.23s3.41,3.61,34.82-5.58c13.75-4.02,27.1-8.81,31.16-10.29-.68-1.26-1.38-2.51-2.08-3.77-.29-.52-.59-1.04-.88-1.57-29.68,19.67-70.43,13.58-72.16,13.31l.15-4.19c.41.07,41.3,6.15,69.64-13.1l.3.34c-1.26-2.19-2.55-4.41-3.88-6.65-10.01,6.61-24.99,16.23-27.9,16.55l-1.14-4.22c2.3-.68,15-8.6,26.66-16.31-.64-1.07-1.3-2.15-1.97-3.23-2.98,2.29-9.71,7.38-16.95,12.28-20.29,13.72-24.91,12.57-26.65,12.13l.62-4.09c4.49,1.12,24.33-11.63,40.52-24.3-.63-1-1.26-2-1.9-3.01-3.77,2.61-13.94,9.55-24.85,16.04-25.66,15.26-33.2,15.03-36.65,13.53l1.48-3.8c1.33.58,7.59,1.33,32.32-13.38,11.41-6.78,22.01-14.06,25.19-16.29-.88-1.37-1.78-2.74-2.69-4.12-4.6,3.15-13.63,9.21-23.24,14.94-25.66,15.26-33.21,15.02-36.65,13.52l1.47-3.79c1.33.58,7.59,1.33,32.32-13.38,9.88-5.88,19.14-12.12,23.52-15.13-.39-.58-.77-1.16-1.17-1.73-4.96,2.55-16.18,8.2-27.82,13.29-25.52,11.14-33.9,11.43-37.56,9.31-.48-.28-.88-.6-1.23-.95l3.15-2.67s3.8,3.26,33.26-9.59c11.57-5.05,22.71-10.67,27.61-13.18-1.09-1.59-2.21-3.18-3.35-4.78-26.37,22.17-65.78,20.7-67.49,20.62l-.4-4.24c.4.01,39.98,1.46,65.15-20.21-1.05-1.46-2.12-2.92-3.2-4.38-3.11,1.43-15.76,7.17-29.07,12.18-26.04,9.79-34.25,9.35-37.82,7.28-.33-.19-.62-.39-.87-.6l2.74-3.03c.44.35,5.11,3.15,33.73-7.61,12.82-4.82,25.03-10.34,28.53-11.94-1.31-1.75-2.64-3.49-4-5.24-3.22,1.99-10.09,6.18-17.32,10.21-20.75,11.57-24.33,10.6-25.85,10.19l.71-4.06c3.63.72,22.99-9.61,39.62-19.98-1.3-1.66-2.62-3.31-3.96-4.97-4.01,2.78-13.91,9.5-24.51,15.8-25.65,15.26-33.2,15.02-36.64,13.53l1.47-3.8c1.33.58,7.6,1.33,32.35-13.39,10.61-6.31,20.5-13.04,24.4-15.74-.42-.51-.84-1.02-1.26-1.53-4.45,2.3-16.3,8.32-28.63,13.7-25.52,11.14-33.91,11.42-37.56,9.31-.48-.28-.88-.61-1.23-.95l3.15-2.67s3.8,3.27,33.26-9.59c11.9-5.2,23.35-10.99,28.01-13.39-1.26-1.5-2.55-3-3.85-4.49-26.37,22.09-65.69,20.62-67.39,20.55l-.41-4.24c.4.02,39.53,1.45,64.72-19.83-1.25-1.42-2.52-2.85-3.81-4.27-4.31,1.96-15.89,7.13-28.03,11.7-26.04,9.79-34.25,9.35-37.82,7.28-.33-.19-.62-.39-.87-.6l2.73-3.03c.45.36,5.12,3.16,33.75-7.62,11.39-4.29,22.27-9.11,27.02-11.26-1.92-2.09-3.87-4.17-5.85-6.25-4.25,2.02-15.72,7.29-28.2,11.37-19.08,6.23-32.57,7.14-40.21,2.73-1.1-.64-2.09-1.4-2.95-2.25l3.18-2.64c10.27,10.32,48.18-4.65,64.86-12.64-1.08-1.11-2.17-2.23-3.27-3.33-8.43,3.7-44.97,18.36-67.3,5.44-.59-.34-1.18-.7-1.75-1.08l2.35-3.33c18.9,12.64,53.46-.36,63.26-4.48-2.89-2.86-5.85-5.71-8.86-8.53-8.28,2.99-47.36,16.17-65.1,5.91-.45-.26-.87-.53-1.29-.81l2.4-3.29c12.68,8.73,45.41-.01,60.3-5.24-2.23-2.05-4.49-4.09-6.79-6.12-9.71,2.16-52.06,10.94-66.3,2.7-.71-.41-1.34-.86-1.91-1.35l2.93-2.87c7.45,6.58,39.91,2.48,61.17-2.07-2.02-1.75-4.07-3.49-6.13-5.21l-3.36.2c-20.94,1.28-54.04,3.33-70.48-6.19-2.63-1.52-4.83-3.34-6.49-5.51l3.62-2.13c10.18,13.28,51.46,10.88,71.85,9.62-5.2-4.22-10.55-8.38-16.07-12.47-6.66,1.12-37.01,5.16-62.61-9.66-3.98-2.3-7.84-5.05-11.49-8.35l2.97-2.83c22.07,19.96,54.08,18.53,66.07,17.14-5.22-3.76-10.58-7.46-16.07-11.07-4.06,3-14.82,7.2-36.87-5.56-1.18-.68-2.39-1.41-3.64-2.19l2.21-3.42c20.15,12.66,30.04,10.64,34.07,8.41-8.71-5.58-17.76-10.97-27.16-16.12-3.98.25-20.76.88-32.15-5.7-2.5-1.45-4.74-3.24-6.52-5.46l3.54-2.22c5.92,7.37,19,8.99,27.36,9.23-9.46-4.95-19.27-9.65-29.44-14.07l1.47-3.8c13.24,5.76,26.15,12.09,38.7,19.01-10.32-10.41-23.1-17.1-29.24-20.32-1.62-.84-2.68-1.4-3.34-1.83l2.3-3.36c.43.28,1.56.87,2.87,1.56,7.92,4.15,26.41,13.83,37.85,29.86,4.91,2.86,9.76,5.82,14.56,8.86-2.13-6.29-7.36-18.64-17.71-27.47l2.85-2.93c15.44,13.16,20.19,32.6,20.54,34.07,8.54,5.6,16.9,11.48,25.07,17.64l-.07-.37s-.04,0-.11,0c.09-.01.54-.1.79-.82.58-1.61.95-8.83-18.78-34.05l3.6-2.17c15.44,19.74,21.98,32.67,19.4,38.41-.33.75-.78,1.31-1.26,1.72,5.3,4.07,10.51,8.26,15.64,12.58.71-7.02-.49-26.15-25.11-57.88l3.61-2.15c28.95,37.34,26.95,58.14,25.67,63.58,3.05,2.63,6.08,5.3,9.07,8.01.92-9.72,2.46-35.12-4.67-49.44l4.12-1.33c8.7,17.44,5.57,48.39,4.82,54.68,1.43,1.33,2.86,2.67,4.28,4.03,4.06-7.1,15.55-29.55,7.72-44.45l4.08-1.41c9.32,17.76-4.58,43.07-8.29,49.25,1.48,1.43,2.95,2.88,4.4,4.33.7.7,1.4,1.4,2.09,2.11,4.58-5.79,17.82-24.63,11.3-41.91l4.31-.9c7.57,20.06-7.78,40.76-12.26,46.22,1.87,1.92,3.73,3.86,5.57,5.83,6.41-10.88,18.56-34.21,16.34-43.29l4.47-.39c2.98,12.18-13.26,40.35-17.43,47.3,1.18,1.27,2.35,2.55,3.51,3.85,2.4-3.53,7.21-10.73,11.66-18.34,11.74-20.03,10.01-23.81,9.78-24.18l3.85-1.79c1.74,2.69,2.22,8.34-9.54,28.39-5,8.54-10.44,16.58-12.5,19.57.76.85,1.51,1.71,2.26,2.58,10.94-13.14,26.28-34.28,25.31-40.84h4.54c1.5,10.02-20.97,37.62-26.71,44.48.49.58,1,1.17,1.49,1.76,5.37-3.34,22.56-15.52,29.3-37.88l4.43,1.64c-7.11,23.57-24.75,36.14-30.72,39.81,1.06,1.27,2.11,2.55,3.16,3.84,2.52-2.02,10.45-8.44,18.05-15.46,17.25-15.95,16.55-19.89,16.41-20.29l4.36-.77c1,2.92-.07,8.31-17.34,24.27-8.04,7.43-16.43,14.18-18.56,15.88.68.84,1.35,1.69,2.02,2.54,14.57-9.69,35.94-25.96,36.76-32.34l4.55,1.05c-1.23,9.52-30.11,29.39-38.46,34.95.52.66,1.05,1.34,1.56,2.01,7.28-2.3,26.46-9.84,38.7-28.18l3.99,2.57c-12.53,18.77-31.47,26.69-39.82,29.39,1.17,1.55,2.32,3.11,3.48,4.69,19.65-11.37,39.08-25.53,38.75-30.42l4.58.3c.2,2.92-1.81,8.36-21.39,21.73-7.77,5.3-15.65,10.02-19.23,12.11,1.35,1.87,2.69,3.76,4.02,5.65,14.57-9.67,36.14-26.07,36.97-32.49l4.56,1.06c-1.25,9.69-31.17,30.11-38.89,35.23.44.64.89,1.29,1.33,1.94,6.7-2.04,26.73-9.46,39.35-28.4l3.99,2.57c-13.01,19.51-32.94,27.28-40.74,29.69.82,1.22,1.63,2.44,2.44,3.67,16.19-7.5,39.1-19.87,40.88-25.79l4.44,1.64c-2.61,8.62-31.95,22.94-42.82,27.98.96,1.49,1.91,2.97,2.85,4.47,16.19-7.29,41.83-20.82,43.73-27.09l4.43,1.63c-2.9,9.6-38.98,26.28-45.74,29.33.36.59.73,1.17,1.09,1.77,6.01-.81,28.63-4.94,45.07-22.34l3.63,3.03c-16.49,17.46-38.31,22.18-46.23,23.36,1.04,1.72,2.08,3.46,3.1,5.2,21.97-8.42,44.54-19.81,44.99-24.68l4.57.91c-.26,2.86-3.13,7.86-25.01,18.18-9.44,4.46-18.92,8.22-22.26,9.52,1.14,1.98,2.28,3.97,3.4,5.97,16.23-7.35,41.27-20.63,43.14-26.83l4.44,1.64c-2.86,9.43-37.77,25.71-45.37,29.15.35.63.7,1.26,1.04,1.89,6.44-.91,28.58-5.18,44.76-22.3l3.63,3.03c-16.47,17.42-38.23,22.16-46.18,23.34.44.82.88,1.64,1.3,2.46,17.39-5.17,44.95-15.18,47.74-21.04l4.24,2.13c-4.21,8.84-41.67,20.45-49.88,22.91.34.65.68,1.31,1.02,1.96,6.96-.14,29.55-1.77,48.05-16.3l3.23,3.39c-18.52,14.54-40.38,16.83-49.15,17.13.89,1.76,1.75,3.49,2.6,5.22,23.05-5.53,46.75-13.73,47.87-18.35l4.49,1.45c-.67,2.76-4.27,7.27-27.81,14.68-9.16,2.88-18.28,5.22-22.58,6.27.98,2.05,1.94,4.07,2.88,6.08,17.42-5.3,43.13-14.82,45.82-20.46l4.24,2.13c-3.97,8.33-37.49,19.13-48.19,22.39.38.8.74,1.61,1.1,2.42,8.48-.39,29.14-2.78,46.29-16.24l3.23,3.39c-17.53,13.77-38.07,16.55-47.64,17.06.88,1.99,1.74,3.96,2.57,5.91,17.21-2.98,42.84-9.24,45.56-14.91l4.94,2.5c-4.2,8.77-36.56,15.15-48.46,17.22.7,1.67,1.38,3.32,2.04,4.97,22.77-3.75,47.43-10.36,48.79-14.87l5.17,1.92c-.87,2.84-4.79,7.3-28.82,13.06-9.57,2.29-19.04,4-23.21,4.7.68,1.72,1.34,3.41,1.98,5.08,4.27-.85,15.26-3.11,26.24-5.99,25.97-6.81,27.69-10.71,27.79-11.09,0,.02,0,.04,0,.07l5.3-.08c.59,3.62-2.51,8.3-29.9,15.59-11.44,3.04-23.1,5.44-27.6,6.33.73,1.94,1.42,3.84,2.09,5.7l.63.97s-.09.04-.24.11c11.04,30.79,15.12,50.91,15.19,51.27Z"/>
  </g>
  <g id="Leaf2">
    <path class="cls-14" d="M2490.2,969.2l-4.8,3.6c-.29-.39-16.91-22.32-47.43-52.63-4.62,7.52-13.38,21.55-22.87,35.4-24.84,36.26-33.94,41.51-38.92,41.51-.15,0-.29,0-.43-.02l.37-5.98h.07c1.39,0,8.79-2.17,33.95-38.88,9.96-14.53,19.11-29.27,23.44-36.36-1.44-1.41-2.91-2.83-4.41-4.26-4.89,6.43-16.78,21.82-29.32,36.56-24.62,28.92-34.88,35.84-40.36,35.84-1.29,0-2.31-.38-3.2-.95l3.24-5.05c-.06-.04-.11-.05-.13-.06.64.14,7.18.26,37.11-35.13,12.37-14.61,23.87-29.57,28.29-35.38-1.57-1.49-3.17-2.98-4.8-4.49-3.82,5.14-12.54,16.85-21.42,28.5-24.52,32.16-26.17,32.5-27.76,32.82l-1.2-5.88c-.35.08-.59.2-.69.25,3.81-2.81,29.9-37.19,46.63-59.78-1.85-1.69-3.74-3.39-5.66-5.11-4.44,7.27-13.51,21.86-23.38,36.26-24.85,36.26-33.95,41.51-38.92,41.51-.15,0-.3-.01-.44-.02l.37-5.99c1.19.05,8.39-1.46,34.02-38.87,10.24-14.94,19.63-30.1,23.79-36.94-1.3-1.13-2.61-2.28-3.94-3.44-5.01,6.57-16.75,21.76-29.14,36.32-24.62,28.92-34.88,35.84-40.36,35.84-1.29,0-2.31-.38-3.2-.95l3.24-5.05c-.06-.04-.11-.05-.12-.06.63.14,7.17.26,37.09-35.11,12.02-14.21,23.24-28.76,27.93-34.9-.16-.14-.33-.28-.49-.42-.43.28-.7.45-.8.51l-1.48-2.43c-.83-.71-1.67-1.42-2.52-2.13-24.92,47.95-70.83,68.27-72.82,69.13l-2.39-5.5c.48-.21,46.66-20.71,70.48-67.55-1.05-.86-2.11-1.72-3.17-2.58-9.42,13.74-45.93,64.81-68.31,64.81h-.1l.04-6h.07c17.22,0,50.34-43.16,63.61-62.59-1.93-1.54-3.88-3.09-5.85-4.63-3.48,4.94-11.45,16.2-19.62,27.34-21.46,29.25-24.43,30.94-26.53,30.94-.13,0-.26-.01-.4-.01l.33-5.99c-.63-.03-1.03.16-1.13.21,3.91-2.43,26.67-33.49,42.6-56.16-2.48-1.92-5-3.82-7.55-5.72-3.62,6.52-11.82,21-20.98,35.35-22.94,35.96-31.92,40.19-36.68,40.24l-.06-6c1.84-.02,9.55-2.78,31.68-37.47,9.43-14.76,17.82-29.66,21.18-35.72-1.5-1.11-3-2.2-4.52-3.29-3.57,4.97-15.21,21.07-27.8,36.51-23.49,28.83-33.44,35.16-38.91,35.16-1.05,0-1.93-.24-2.71-.59l2.45-5.47c.06.01,6.01,2.09,34.53-32.89,12.49-15.32,24.05-31.31,27.56-36.21-1.54-1.1-3.09-2.19-4.66-3.28-.65-.45-1.3-.9-1.96-1.36-20,47.1-68.4,69.46-70.46,70.4l-2.48-5.47c.49-.22,49.04-22.69,67.84-68.27l.54.22c-2.76-1.87-5.57-3.75-8.44-5.63-6.76,15.85-17.05,39.24-20.03,41.8l-3.91-4.55c2.08-2.57,10.96-22.09,18.83-40.57-1.38-.89-2.78-1.78-4.19-2.67-1.81,5.14-5.94,16.62-10.76,28.24-13.51,32.55-19.28,34.5-21.46,35.23l-1.91-5.69c5.61-1.89,19.24-32.86,28.92-61.04-1.32-.81-2.64-1.63-3.98-2.44-2.47,6.13-9.2,22.52-17.02,38.89-18.4,38.49-26.79,43.78-31.51,44.41l-.79-5.95c1.82-.24,9.14-3.92,26.87-41.02,8.19-17.11,15.16-34.26,17.24-39.46-1.83-1.1-3.68-2.19-5.55-3.27-3.03,7.43-9.07,21.86-15.96,36.29-18.4,38.49-26.8,43.77-31.51,44.4l-.79-5.94c1.82-.25,9.14-3.92,26.87-41.02,7.08-14.82,13.26-29.66,16.14-36.75-.79-.46-1.58-.91-2.38-1.35-3.81,6.93-12.5,22.46-22.01,37.57-20.85,33.12-29.83,39.69-35.17,39.69-.7,0-1.34-.12-1.94-.3l1.76-5.74c.07.01,6.22,1.36,30.29-36.87,9.45-15.01,18.08-30.45,21.84-37.28-2.2-1.22-4.43-2.43-6.68-3.63-14.81,47.85-58.82,75.13-60.73,76.29l-3.12-5.12c.44-.28,44.63-27.71,58.44-74.03-2.07-1.09-4.16-2.16-6.27-3.23-2.5,4.13-12.69,20.82-24.08,37.08-22.27,31.78-31.53,37.29-36.74,37.29-.48,0-.92-.04-1.33-.12l1.08-5.9c.7.13,7.58.25,32.06-34.69,10.96-15.65,20.82-31.73,23.63-36.37-2.54-1.26-5.1-2.51-7.69-3.74-2.26,4.93-7.12,15.37-12.48,25.87-15.37,30.14-19.89,31.55-21.82,32.15l-1.79-5.72c4.42-1.76,19.06-29.29,30.67-54.86-2.47-1.16-4.96-2.3-7.47-3.43-2.63,6.52-9.2,22.44-16.8,38.34-18.39,38.49-26.79,43.77-31.5,44.4l-.8-5.94c1.82-.25,9.15-3.92,26.89-41.05,7.61-15.91,14.16-31.84,16.72-38.17-.78-.35-1.56-.69-2.35-1.02-3.41,6.23-12.56,22.7-22.63,38.69-20.85,33.12-29.84,39.69-35.17,39.69-.7,0-1.35-.12-1.94-.3l1.76-5.74c.07.01,6.22,1.37,30.29-36.87,9.72-15.45,18.57-31.33,22.15-37.84-2.33-.98-4.68-1.95-7.05-2.9-14.86,47.75-58.77,74.96-60.67,76.12l-3.13-5.12c.45-.27,44.13-27.39,58.21-73.23-2.27-.89-4.56-1.77-6.87-2.64-3.47,5.69-12.86,20.87-23.24,35.69-22.27,31.78-31.53,37.29-36.74,37.29-.48,0-.92-.04-1.33-.12l1.07-5.9c.72.13,7.59.25,32.08-34.71,9.74-13.91,18.59-28.12,22.42-34.38-3.42-1.25-6.87-2.47-10.35-3.66-3.37,5.73-12.57,20.95-23.63,35.4-16.91,22.08-31.09,33.23-42.23,33.23-1.61,0-3.17-.24-4.65-.7l1.8-5.73c17.75,5.6,49.72-41.59,62.91-64.15-1.88-.62-3.78-1.24-5.68-1.84-6.88,10.97-37.55,56.74-70.13,56.74-.86,0-1.73-.03-2.6-.09l.46-5.99c28.66,2.18,58.21-40,66.32-52.52-4.97-1.52-10-2.97-15.08-4.36-7.16,9.94-41.55,55.71-67.43,55.71-.65,0-1.29-.03-1.92-.08l.55-5.98c19.38,1.78,49.63-33.61,62.6-51.31-3.74-.97-7.5-1.91-11.29-2.8-9.25,9.95-49.99,52.5-70.77,52.5-1.03,0-2.01-.1-2.94-.32l1.38-5.84c12.31,2.9,45.2-26.35,65.56-47.9-3.31-.74-6.65-1.45-10-2.13l-3.54,2.74c-22.08,17.13-56.97,44.23-80.96,44.23-3.84,0-7.4-.7-10.58-2.24l2.61-5.4c19.53,9.45,63.13-24.16,84.63-40.85-8.35-1.55-16.84-2.91-25.45-4.06-6.57,6.36-37.19,33.97-74.55,33.97-5.81,0-11.77-.66-17.84-2.18l1.46-5.82c36.75,9.19,70.84-16.31,83.07-26.96-8.09-.95-16.28-1.71-24.57-2.26-2.54,6.84-11.64,20.17-43.82,20.17-1.72,0-3.5-.03-5.36-.11l.25-6c30.04,1.28,39.57-8.62,42.57-14.45-13.05-.7-26.35-.89-39.89-.52-4.19,3.26-22.14,16.49-38.75,16.49-3.65,0-7.23-.63-10.58-2.16l2.47-5.46c11.13,5.05,26.46-2.56,35.75-8.44-13.47.67-27.17,1.92-41.08,3.78l-.8-5.95c18.11-2.43,36.23-3.88,54.33-4.33-17.87-5.67-36.07-4.78-44.82-4.35-2.3.12-3.81.19-4.81.13l.39-5.99c.65.04,2.26-.04,4.13-.13,11.29-.55,37.62-1.85,60.27,10.18,7.18.03,14.35.22,21.52.56-6.31-6.47-19.83-18.39-36.74-22.02l1.26-5.86c25.2,5.4,42.69,26.74,44,28.36,12.88.84,25.74,2.18,38.57,4.01l-.31-.43s-.05.03-.12.09c.09-.08.52-.53.35-1.63-.38-2.49-4.54-11.99-42.07-29.64l2.56-5.43c29.37,13.82,44.69,25.51,45.51,34.76.11,1.21-.03,2.25-.29,3.13,8.37,1.29,16.72,2.79,25.05,4.51-3.67-9.5-17.08-33.07-64.06-55.43l2.58-5.42c55.27,26.32,66.24,54.4,68.28,62.3,5,1.1,10,2.28,14.98,3.53-5.14-13.11-19.53-46.72-36.38-59.75l3.66-4.74c20.54,15.86,36.7,57.75,39.86,66.34,2.41.64,4.82,1.3,7.23,1.98-.05-12.08-1.69-49.28-19.67-62.54l3.57-4.83c21.42,15.81,22.24,58.45,22.09,69.1,2.52.74,5.04,1.5,7.55,2.28,1.21.37,2.41.75,3.62,1.15,1.35-10.79,3.9-44.67-14.15-61.94l4.14-4.34c20.97,20.05,17.28,57.87,15.83,68.17,3.26,1.07,6.52,2.18,9.77,3.33.12-18.65-1.35-57.47-9.52-67.43l4.64-3.8c10.96,13.37,11.03,61.4,10.86,73.37,2.09.75,4.18,1.53,6.27,2.33.39-6.28,1.09-19.05,1.15-32.08.16-34.29-4.12-37.85-4.61-38.15l3.08-5.14c3.6,2.15,7.7,9.03,7.53,43.35-.07,14.62-.93,28.92-1.29,34.27,1.37.53,2.73,1.07,4.1,1.62,3.65-24.89,7.05-63.27,1.83-70.94l4.96-3.37c7.98,11.71.87,63.62-1.06,76.63.91.38,1.83.76,2.75,1.15,3.76-8.25,14.85-36.53,8.07-70.1l5.88-1.18c7.14,35.4-4.2,64.51-8.4,73.63,1.96.84,3.92,1.7,5.88,2.57,1.48-4.45,6.08-18.52,9.95-33.12,8.77-33.15,5.51-37.68,5.11-38.08l4.28-4.21c2.94,2.99,5.18,10.67-3.6,43.86-4.09,15.44-8.99,30.28-10.24,34.03,1.27.57,2.54,1.16,3.81,1.75,9.8-23.16,22.86-59.78,19.73-68.55l5.64-2.02c4.68,13.08-14.33,59.85-19.94,73.13.99.46,1.99.94,2.98,1.42,6.5-8.32,22.7-32.16,24.48-64.66l5.99.33c-1.82,33.27-17.52,57.4-24.94,67.04,2.26,1.12,4.51,2.26,6.77,3.42,14.29-29.08,26.58-61.55,23.12-67.56l5.2-3c2.07,3.59,3.31,12.02-9.64,43.6-5.14,12.52-10.77,24.38-13.36,29.71,2.66,1.39,5.32,2.81,7.97,4.25,9.81-23.14,23.02-60.07,19.86-68.89l5.65-2.02c4.76,13.31-15.03,61.55-20.23,73.81.89.49,1.79.99,2.68,1.5,6.03-7.56,23.23-31.87,25.06-65.42l5.99.33c-1.88,34.56-18.75,59.25-25.75,68.1,1.67.95,3.33,1.91,4.99,2.89,12.95-21.57,30.17-54.33,28.38-63.22l5.89-1.18c2.6,12.95-20.42,52.97-29.11,67.45,1.99,1.19,3.97,2.38,5.94,3.61,13.09-21.3,32.56-57.57,30.67-66.99l5.88-1.19c2.9,14.42-25.99,62.43-31.45,71.33.77.48,1.54.96,2.31,1.45,6.06-5.48,28.17-27.49,35.14-61.9l5.88,1.19c-6.98,34.52-27.85,56.69-35.76,64.06,2.23,1.43,4.46,2.89,6.68,4.36,18.69-27.01,36.16-58.28,33.57-64.84l5.57-2.21c1.53,3.85,1.55,12.37-15.84,41.74-7.5,12.68-15.48,24.51-18.31,28.63,2.5,1.69,5,3.39,7.49,5.12,13.09-21.4,32.06-56.91,30.19-66.21l5.89-1.18c2.84,14.17-25.03,60.82-31.16,70.84.78.54,1.56,1.09,2.33,1.65,6.47-5.93,27.97-27.77,34.83-61.62l5.88,1.19c-6.98,34.46-27.77,56.61-35.72,64.01,1,.72,2,1.45,2.98,2.18,15.74-19.47,39.53-52.66,38.88-62.21l5.98-.41c.99,14.42-32.62,56.98-40.03,66.19.79.58,1.57,1.17,2.35,1.75,7.52-5.32,31.19-24.12,42.22-56.38l5.68,1.94c-11.05,32.29-33.5,51.39-42.89,58.26,2.08,1.59,4.12,3.17,6.15,4.75,21.7-24.13,42.42-52.13,40.72-58.87l5.82-1.47c1.01,4.02-.07,12.46-21.12,39.34-8.19,10.46-16.68,20.19-20.72,24.73,2.37,1.89,4.7,3.77,6.99,5.64,15.69-19.67,37.77-50.85,37.15-60.05l5.98-.41c.93,13.58-28.88,52.19-38.52,64.28.92.75,1.83,1.51,2.73,2.28,9.02-6.77,30.1-25.11,40.33-55.01l5.68,1.95c-10.46,30.57-31.15,49.32-41.29,57.06,2.22,1.9,4.41,3.78,6.55,5.66,16.93-16.54,40.99-43.5,40.37-52.76l6.98-.46c.96,14.32-30.38,46.41-42.08,57.87,1.82,1.62,3.61,3.23,5.37,4.84,22.52-21.64,45.29-48.33,43.93-55.11l6.87-1.37c.85,4.27-.62,12.87-23.25,38.02-9.01,10.01-18.29,19.2-22.4,23.18,1.83,1.69,3.62,3.37,5.38,5.03,4.13-4.24,14.71-15.27,24.9-27.07,24.08-27.91,23.49-34.18,23.37-34.74.01.02.02.06.05.09l5.74-4.02c2.93,4.19,2.51,12.47-22.83,42.05-10.58,12.35-21.81,24.05-26.17,28.52,2.02,1.94,3.98,3.86,5.89,5.74l1.3.77s-.07.12-.19.32c31.54,31.2,48.73,53.91,49.03,54.31Z"/>
  </g>
  <g id="Leaf3">
    <path class="cls-14" d="M386.5,1074.01l4.8,3.6c.29-.39,16.91-22.32,47.43-52.63,4.62,7.52,13.38,21.55,22.87,35.4,24.84,36.26,33.94,41.51,38.92,41.51.15,0,.29,0,.43-.02l-.37-5.98h-.07c-1.39,0-8.79-2.17-33.95-38.88-9.96-14.53-19.11-29.27-23.44-36.36,1.44-1.41,2.91-2.83,4.41-4.26,4.89,6.43,16.78,21.82,29.32,36.56,24.62,28.92,34.88,35.84,40.36,35.84,1.29,0,2.31-.38,3.2-.95l-3.24-5.05c.06-.04.11-.05.13-.06-.64.14-7.18.26-37.11-35.13-12.37-14.61-23.87-29.57-28.29-35.38,1.57-1.49,3.17-2.98,4.8-4.49,3.82,5.14,12.54,16.85,21.42,28.5,24.52,32.16,26.17,32.5,27.76,32.82l1.2-5.88c.35.08.59.2.69.25-3.81-2.81-29.9-37.19-46.63-59.78,1.85-1.69,3.74-3.39,5.66-5.11,4.44,7.27,13.51,21.86,23.38,36.26,24.85,36.26,33.95,41.51,38.92,41.51.15,0,.3-.01.44-.02l-.37-5.99c-1.19.05-8.39-1.46-34.02-38.87-10.24-14.94-19.63-30.1-23.79-36.94,1.3-1.13,2.61-2.28,3.94-3.44,5.01,6.57,16.75,21.76,29.14,36.32,24.62,28.92,34.88,35.84,40.36,35.84,1.29,0,2.31-.38,3.2-.95l-3.24-5.05c.06-.04.11-.05.12-.06-.63.14-7.17.26-37.09-35.11-12.02-14.21-23.24-28.76-27.93-34.9.16-.14.33-.28.49-.42.43.28.7.45.8.51l1.48-2.43c.83-.71,1.67-1.42,2.52-2.13,24.92,47.95,70.83,68.27,72.82,69.13l2.39-5.5c-.48-.21-46.66-20.71-70.48-67.55,1.05-.86,2.11-1.72,3.17-2.58,9.42,13.74,45.93,64.81,68.31,64.81h.1l-.04-6h-.07c-17.22,0-50.34-43.16-63.61-62.59,1.93-1.54,3.88-3.09,5.85-4.63,3.48,4.94,11.45,16.2,19.62,27.34,21.46,29.25,24.43,30.94,26.53,30.94.13,0,.26-.01.4-.01l-.33-5.99c.63-.03,1.03.16,1.13.21-3.91-2.43-26.67-33.49-42.6-56.16,2.48-1.92,5-3.82,7.55-5.72,3.62,6.52,11.82,21,20.98,35.35,22.94,35.96,31.92,40.19,36.68,40.24l.06-6c-1.84-.02-9.55-2.78-31.68-37.47-9.43-14.76-17.82-29.66-21.18-35.72,1.5-1.11,3-2.2,4.52-3.29,3.57,4.97,15.21,21.07,27.8,36.51,23.49,28.83,33.44,35.16,38.91,35.16,1.05,0,1.93-.24,2.71-.59l-2.45-5.47c-.06.01-6.01,2.09-34.53-32.89-12.49-15.32-24.05-31.31-27.56-36.21,1.54-1.1,3.09-2.19,4.66-3.28.65-.45,1.3-.9,1.96-1.36,20,47.1,68.4,69.46,70.46,70.4l2.48-5.47c-.49-.22-49.04-22.69-67.84-68.27l-.54.22c2.76-1.87,5.57-3.75,8.44-5.63,6.76,15.85,17.05,39.24,20.03,41.8l3.91-4.55c-2.08-2.57-10.96-22.09-18.83-40.57,1.38-.89,2.78-1.78,4.19-2.67,1.81,5.14,5.94,16.62,10.76,28.24,13.51,32.55,19.28,34.5,21.46,35.23l1.91-5.69c-5.61-1.89-19.24-32.86-28.92-61.04,1.32-.81,2.64-1.63,3.98-2.44,2.47,6.13,9.2,22.52,17.02,38.89,18.4,38.49,26.79,43.78,31.51,44.41l.79-5.95c-1.82-.24-9.14-3.92-26.87-41.02-8.19-17.11-15.16-34.26-17.24-39.46,1.83-1.1,3.68-2.19,5.55-3.27,3.03,7.43,9.07,21.86,15.96,36.29,18.4,38.49,26.8,43.77,31.51,44.4l.79-5.94c-1.82-.25-9.14-3.92-26.87-41.02-7.08-14.82-13.26-29.66-16.14-36.75.79-.46,1.58-.91,2.38-1.35,3.81,6.93,12.5,22.46,22.01,37.57,20.85,33.12,29.83,39.69,35.17,39.69.7,0,1.34-.12,1.94-.3l-1.76-5.74c-.07.01-6.22,1.36-30.29-36.87-9.45-15.01-18.08-30.45-21.84-37.28,2.2-1.22,4.43-2.43,6.68-3.63,14.81,47.85,58.82,75.13,60.73,76.29l3.12-5.12c-.44-.28-44.63-27.71-58.44-74.03,2.07-1.09,4.16-2.16,6.27-3.23,2.5,4.13,12.69,20.82,24.08,37.08,22.27,31.78,31.53,37.29,36.74,37.29.48,0,.92-.04,1.33-.12l-1.08-5.9c-.7.13-7.58.25-32.06-34.69-10.96-15.65-20.82-31.73-23.63-36.37,2.54-1.26,5.1-2.51,7.69-3.74,2.26,4.93,7.12,15.37,12.48,25.87,15.37,30.14,19.89,31.55,21.82,32.15l1.79-5.72c-4.42-1.76-19.06-29.29-30.67-54.86,2.47-1.16,4.96-2.3,7.47-3.43,2.63,6.52,9.2,22.44,16.8,38.34,18.39,38.49,26.79,43.77,31.5,44.4l.8-5.94c-1.82-.25-9.15-3.92-26.89-41.05-7.61-15.91-14.16-31.84-16.72-38.17.78-.35,1.56-.69,2.35-1.02,3.41,6.23,12.56,22.7,22.63,38.69,20.85,33.12,29.84,39.69,35.17,39.69.7,0,1.35-.12,1.94-.3l-1.76-5.74c-.07.01-6.22,1.37-30.29-36.87-9.72-15.45-18.57-31.33-22.15-37.84,2.33-.98,4.68-1.95,7.05-2.9,14.86,47.75,58.77,74.96,60.67,76.12l3.13-5.12c-.45-.27-44.13-27.39-58.21-73.23,2.27-.89,4.56-1.77,6.87-2.64,3.47,5.69,12.86,20.87,23.24,35.69,22.27,31.78,31.53,37.29,36.74,37.29.48,0,.92-.04,1.33-.12l-1.07-5.9c-.72.13-7.59.25-32.08-34.71-9.74-13.91-18.59-28.12-22.42-34.38,3.42-1.25,6.87-2.47,10.35-3.66,3.37,5.73,12.57,20.95,23.63,35.4,16.91,22.08,31.09,33.23,42.23,33.23,1.61,0,3.17-.24,4.65-.7l-1.8-5.73c-17.75,5.6-49.72-41.59-62.91-64.15,1.88-.62,3.78-1.24,5.68-1.84,6.88,10.97,37.55,56.74,70.13,56.74.86,0,1.73-.03,2.6-.09l-.46-5.99c-28.66,2.18-58.21-40-66.32-52.52,4.97-1.52,10-2.97,15.08-4.36,7.16,9.94,41.55,55.71,67.43,55.71.65,0,1.29-.03,1.92-.08l-.55-5.98c-19.38,1.78-49.63-33.61-62.6-51.31,3.74-.97,7.5-1.91,11.29-2.8,9.25,9.95,49.99,52.5,70.77,52.5,1.03,0,2.01-.1,2.94-.32l-1.38-5.84c-12.31,2.9-45.2-26.35-65.56-47.9,3.31-.74,6.65-1.45,10-2.13l3.54,2.74c22.08,17.13,56.97,44.23,80.96,44.23,3.84,0,7.4-.7,10.58-2.24l-2.61-5.4c-19.53,9.45-63.13-24.16-84.63-40.85,8.35-1.55,16.84-2.91,25.45-4.06,6.57,6.36,37.19,33.97,74.55,33.97,5.81,0,11.77-.66,17.84-2.18l-1.46-5.82c-36.75,9.19-70.84-16.31-83.07-26.96,8.09-.95,16.28-1.71,24.57-2.26,2.54,6.84,11.64,20.17,43.82,20.17,1.72,0,3.5-.03,5.36-.11l-.25-6c-30.04,1.28-39.57-8.62-42.57-14.45,13.05-.7,26.35-.89,39.89-.52,4.19,3.26,22.14,16.49,38.75,16.49,3.65,0,7.23-.63,10.58-2.16l-2.47-5.46c-11.13,5.05-26.46-2.56-35.75-8.44,13.47.67,27.17,1.92,41.08,3.78l.8-5.95c-18.11-2.43-36.23-3.88-54.33-4.33,17.87-5.67,36.07-4.78,44.82-4.35,2.3.12,3.81.19,4.81.13l-.39-5.99c-.65.04-2.26-.04-4.13-.13-11.29-.55-37.62-1.85-60.27,10.18-7.18.03-14.35.22-21.52.56,6.31-6.47,19.83-18.39,36.74-22.02l-1.26-5.86c-25.2,5.4-42.69,26.74-44,28.36-12.88.84-25.74,2.18-38.57,4.01l.31-.43s.05.03.12.09c-.09-.08-.52-.53-.35-1.63.38-2.49,4.54-11.99,42.07-29.64l-2.56-5.43c-29.37,13.82-44.69,25.51-45.51,34.76-.11,1.21.03,2.25.29,3.13-8.37,1.29-16.72,2.79-25.05,4.51,3.67-9.5,17.08-33.07,64.06-55.43l-2.58-5.42c-55.27,26.32-66.24,54.4-68.28,62.3-5,1.1-10,2.28-14.98,3.53,5.14-13.11,19.53-46.72,36.38-59.75l-3.66-4.74c-20.54,15.86-36.7,57.75-39.86,66.34-2.41.64-4.82,1.3-7.23,1.98.05-12.08,1.69-49.28,19.67-62.54l-3.57-4.83c-21.42,15.81-22.24,58.45-22.09,69.1-2.52.74-5.04,1.5-7.55,2.28-1.21.37-2.41.75-3.62,1.15-1.35-10.79-3.9-44.67,14.15-61.94l-4.14-4.34c-20.97,20.05-17.28,57.87-15.83,68.17-3.26,1.07-6.52,2.18-9.77,3.33-.12-18.65,1.35-57.47,9.52-67.43l-4.64-3.8c-10.96,13.37-11.03,61.4-10.86,73.37-2.09.75-4.18,1.53-6.27,2.33-.39-6.28-1.09-19.05-1.15-32.08-.16-34.29,4.12-37.85,4.61-38.15l-3.08-5.14c-3.6,2.15-7.7,9.03-7.53,43.35.07,14.62.93,28.92,1.29,34.27-1.37.53-2.73,1.07-4.1,1.62-3.65-24.89-7.05-63.27-1.83-70.94l-4.96-3.37c-7.98,11.71-.87,63.62,1.06,76.63-.91.38-1.83.76-2.75,1.15-3.76-8.25-14.85-36.53-8.07-70.1l-5.88-1.18c-7.14,35.4,4.2,64.51,8.4,73.63-1.96.84-3.92,1.7-5.88,2.57-1.48-4.45-6.08-18.52-9.95-33.12-8.77-33.15-5.51-37.68-5.11-38.08l-4.28-4.21c-2.94,2.99-5.18,10.67,3.6,43.86,4.09,15.44,8.99,30.28,10.24,34.03-1.27.57-2.54,1.16-3.81,1.75-9.8-23.16-22.86-59.78-19.73-68.55l-5.64-2.02c-4.68,13.08,14.33,59.85,19.94,73.13-.99.46-1.99.94-2.98,1.42-6.5-8.32-22.7-32.16-24.48-64.66l-5.99.33c1.82,33.27,17.52,57.4,24.94,67.04-2.26,1.12-4.51,2.26-6.77,3.42-14.29-29.08-26.58-61.55-23.12-67.56l-5.2-3c-2.07,3.59-3.31,12.02,9.64,43.6,5.14,12.52,10.77,24.38,13.36,29.71-2.66,1.39-5.32,2.81-7.97,4.25-9.81-23.14-23.02-60.07-19.86-68.89l-5.65-2.02c-4.76,13.31,15.03,61.55,20.23,73.81-.89.49-1.79.99-2.68,1.5-6.03-7.56-23.23-31.87-25.06-65.42l-5.99.33c1.88,34.56,18.75,59.25,25.75,68.1-1.67.95-3.33,1.91-4.99,2.89-12.95-21.57-30.17-54.33-28.38-63.22l-5.89-1.18c-2.6,12.95,20.42,52.97,29.11,67.45-1.99,1.19-3.97,2.38-5.94,3.61-13.09-21.3-32.56-57.57-30.67-66.99l-5.88-1.19c-2.9,14.42,25.99,62.43,31.45,71.33-.77.48-1.54.96-2.31,1.45-6.06-5.48-28.17-27.49-35.14-61.9l-5.88,1.19c6.98,34.52,27.85,56.69,35.76,64.06-2.23,1.43-4.46,2.89-6.68,4.36-18.69-27.01-36.16-58.28-33.57-64.84l-5.57-2.21c-1.53,3.85-1.55,12.37,15.84,41.74,7.5,12.68,15.48,24.51,18.31,28.63-2.5,1.69-5,3.39-7.49,5.12-13.09-21.4-32.06-56.91-30.19-66.21l-5.89-1.18c-2.84,14.17,25.03,60.82,31.16,70.84-.78.54-1.56,1.09-2.33,1.65-6.47-5.93-27.97-27.77-34.83-61.62l-5.88,1.19c6.98,34.46,27.77,56.61,35.72,64.01-1,.72-2,1.45-2.98,2.18-15.74-19.47-39.53-52.66-38.88-62.21l-5.98-.41c-.99,14.42,32.62,56.98,40.03,66.19-.79.58-1.57,1.17-2.35,1.75-7.52-5.32-31.19-24.12-42.22-56.38l-5.68,1.94c11.05,32.29,33.5,51.39,42.89,58.26-2.08,1.59-4.12,3.17-6.15,4.75-21.7-24.13-42.42-52.13-40.72-58.87l-5.82-1.47c-1.01,4.02.07,12.46,21.12,39.34,8.19,10.46,16.68,20.19,20.72,24.73-2.37,1.89-4.7,3.77-6.99,5.64-15.69-19.67-37.77-50.85-37.15-60.05l-5.98-.41c-.93,13.58,28.88,52.19,38.52,64.28-.92.75-1.83,1.51-2.73,2.28-9.02-6.77-30.1-25.11-40.33-55.01l-5.68,1.95c10.46,30.57,31.15,49.32,41.29,57.06-2.22,1.9-4.41,3.78-6.55,5.66-16.93-16.54-40.99-43.5-40.37-52.76l-6.98-.46c-.96,14.32,30.38,46.41,42.08,57.87-1.82,1.62-3.61,3.23-5.37,4.84-22.52-21.64-45.29-48.33-43.93-55.11l-6.87-1.37c-.85,4.27.62,12.87,23.25,38.02,9.01,10.01,18.29,19.2,22.4,23.18-1.83,1.69-3.62,3.37-5.38,5.03-4.13-4.24-14.71-15.27-24.9-27.07-24.08-27.91-23.49-34.18-23.37-34.74-.01.02-.02.06-.05.09l-5.74-4.02c-2.93,4.19-2.51,12.47,22.83,42.05,10.58,12.35,21.81,24.05,26.17,28.52-2.02,1.94-3.98,3.86-5.89,5.74l-1.3.77s.07.12.19.32c-31.54,31.2-48.73,53.91-49.03,54.31Z"/>
  </g>
  <g id="Leaf4-2" data-name="Leaf4">
    <path class="cls-14" d="M385.02,1019.6l4.51.21c.07-.34,4.02-19.78,14.66-49.65,5.72,2.57,16.48,7.32,27.68,11.67,29.32,11.4,37.33,10.87,40.75,8.89.1-.06.2-.12.29-.18l-2.28-3.36-.05.03c-.95.55-6.76,2.21-36.45-9.32-11.75-4.56-23.02-9.57-28.39-12.01.51-1.4,1.03-2.81,1.58-4.25,5.53,1.83,18.9,6.13,32.49,9.8,26.68,7.18,36.06,7.17,39.81,5,.88-.51,1.45-1.14,1.87-1.83l-3.93-1.67s.06-.07.07-.09c-.39.34-4.83,3-37.34-5.87-13.43-3.66-26.38-7.86-31.38-9.51.57-1.5,1.16-3,1.77-4.53,4.36,1.5,14.31,4.9,24.34,8.21,27.71,9.12,28.95,8.67,30.15,8.22l-1.17-3.92c.27-.09.47-.12.56-.13-3.56-.14-33.1-9.94-52.23-16.54.69-1.72,1.41-3.47,2.15-5.24,5.51,2.5,16.67,7.45,28.32,11.98,29.32,11.39,37.34,10.86,40.75,8.89.1-.06.2-.12.29-.19l-2.28-3.36c-.8.5-6.24,2.47-36.49-9.29-12.08-4.69-23.66-9.85-28.83-12.21.51-1.18,1.02-2.37,1.53-3.58,5.66,1.86,18.86,6.11,32.28,9.73,26.68,7.18,36.06,7.17,39.81,5,.88-.51,1.45-1.14,1.87-1.83l-3.93-1.67s.06-.07.06-.08c-.38.33-4.83,3-37.32-5.87-13.06-3.56-25.68-7.64-30.97-9.38.06-.15.13-.29.19-.44.39,0,.63-.01.72-.02l.19-2.01c.33-.75.66-1.49,1-2.25,33.34,18.22,71.69,11.92,73.34,11.63l-.23-4.17c-.4.07-39,6.37-71.21-11.63.43-.92.86-1.84,1.3-2.77,11.11,4.32,53.45,19.76,68.79,10.89l.07-.04-2.06-3.5-.05.03c-11.8,6.83-49.13-5.33-64.82-11.45.8-1.67,1.61-3.35,2.44-5.03,4.06,1.51,13.34,4.95,22.72,8.24,24.62,8.63,27.23,8.44,28.67,7.61.09-.05.17-.11.27-.16l-2.26-3.38c.42-.27.76-.31.85-.33-3.5.13-29.63-9.05-48.24-16.02,1.05-2.11,2.13-4.22,3.23-6.35,4.69,2.39,15.22,7.62,26.36,12.39,27.91,11.98,35.5,10.89,38.78,9.03l-1.99-3.54c-1.27.72-7.49,2.16-34.42-9.39-11.47-4.91-22.27-10.31-26.63-12.53.65-1.25,1.31-2.48,1.98-3.72,4.13,1.5,17.57,6.32,31.43,10.37,25.87,7.58,34.84,7.34,38.59,5.17.72-.42,1.24-.91,1.66-1.42l-3.53-2.23s-3.41,3.61-34.82-5.58c-13.75-4.02-27.1-8.81-31.16-10.29.68-1.26,1.38-2.51,2.08-3.77.29-.52.59-1.04.88-1.57,29.68,19.67,70.43,13.58,72.16,13.31l-.15-4.19c-.41.07-41.3,6.15-69.64-13.1l-.3.34c1.26-2.19,2.55-4.41,3.88-6.65,10.01,6.61,24.99,16.23,27.9,16.55l1.14-4.22c-2.3-.68-15-8.6-26.66-16.31.64-1.07,1.3-2.15,1.97-3.23,2.98,2.29,9.71,7.38,16.95,12.28,20.29,13.72,24.91,12.57,26.65,12.13l-.62-4.09c-4.49,1.12-24.33-11.63-40.52-24.3.63-1,1.26-2,1.9-3.01,3.77,2.61,13.94,9.55,24.85,16.04,25.66,15.26,33.2,15.03,36.65,13.53l-1.48-3.8c-1.33.58-7.59,1.33-32.32-13.38-11.41-6.78-22.01-14.06-25.19-16.29.88-1.37,1.78-2.74,2.69-4.12,4.6,3.15,13.63,9.21,23.24,14.94,25.66,15.26,33.21,15.02,36.65,13.52l-1.47-3.79c-1.33.58-7.59,1.33-32.32-13.38-9.88-5.88-19.14-12.12-23.52-15.13.39-.58.77-1.16,1.17-1.73,4.96,2.55,16.18,8.2,27.82,13.29,25.52,11.14,33.9,11.43,37.56,9.31.48-.28.88-.6,1.23-.95l-3.15-2.67s-3.8,3.26-33.26-9.59c-11.57-5.05-22.71-10.67-27.61-13.18,1.09-1.59,2.21-3.18,3.35-4.78,26.37,22.17,65.78,20.7,67.49,20.62l.4-4.24c-.4.01-39.98,1.46-65.15-20.21,1.05-1.46,2.12-2.92,3.2-4.38,3.11,1.43,15.76,7.17,29.07,12.18,26.04,9.79,34.25,9.35,37.82,7.28.33-.19.62-.39.87-.6l-2.74-3.03c-.44.35-5.11,3.15-33.73-7.61-12.82-4.82-25.03-10.34-28.53-11.94,1.31-1.75,2.64-3.49,4-5.24,3.22,1.99,10.09,6.18,17.32,10.21,20.75,11.57,24.33,10.6,25.85,10.19l-.71-4.06c-3.63.72-22.99-9.61-39.62-19.98,1.3-1.66,2.62-3.31,3.96-4.97,4.01,2.78,13.91,9.5,24.51,15.8,25.65,15.26,33.2,15.02,36.64,13.53l-1.47-3.8c-1.33.58-7.6,1.33-32.35-13.39-10.61-6.31-20.5-13.04-24.4-15.74.42-.51.84-1.02,1.26-1.53,4.45,2.3,16.3,8.32,28.63,13.7,25.52,11.14,33.91,11.42,37.56,9.31.48-.28.88-.61,1.23-.95l-3.15-2.67s-3.8,3.27-33.26-9.59c-11.9-5.2-23.35-10.99-28.01-13.39,1.26-1.5,2.55-3,3.85-4.49,26.37,22.09,65.69,20.62,67.39,20.55l.41-4.24c-.4.02-39.53,1.45-64.72-19.83,1.25-1.42,2.52-2.85,3.81-4.27,4.31,1.96,15.89,7.13,28.03,11.7,26.04,9.79,34.25,9.35,37.82,7.28.33-.19.62-.39.87-.6l-2.73-3.03c-.45.36-5.12,3.16-33.75-7.62-11.39-4.29-22.27-9.11-27.02-11.26,1.92-2.09,3.87-4.17,5.85-6.25,4.25,2.02,15.72,7.29,28.2,11.37,19.08,6.23,32.57,7.14,40.21,2.73,1.1-.64,2.09-1.4,2.95-2.25l-3.18-2.64c-10.27,10.32-48.18-4.65-64.86-12.64,1.08-1.11,2.17-2.23,3.27-3.33,8.43,3.7,44.97,18.36,67.3,5.44.59-.34,1.18-.7,1.75-1.08l-2.35-3.33c-18.9,12.64-53.46-.36-63.26-4.48,2.89-2.86,5.85-5.71,8.86-8.53,8.28,2.99,47.36,16.17,65.1,5.91.45-.26.87-.53,1.29-.81l-2.4-3.29c-12.68,8.73-45.41-.01-60.3-5.24,2.23-2.05,4.49-4.09,6.79-6.12,9.71,2.16,52.06,10.94,66.3,2.7.71-.41,1.34-.86,1.91-1.35l-2.93-2.87c-7.45,6.58-39.91,2.48-61.17-2.07,2.02-1.75,4.07-3.49,6.13-5.21l3.36.2c20.94,1.28,54.04,3.33,70.48-6.19,2.63-1.52,4.83-3.34,6.49-5.51l-3.62-2.13c-10.18,13.28-51.46,10.88-71.85,9.62,5.2-4.22,10.55-8.38,16.07-12.47,6.66,1.12,37.01,5.16,62.61-9.66,3.98-2.3,7.84-5.05,11.49-8.35l-2.97-2.83c-22.07,19.96-54.08,18.53-66.07,17.14,5.22-3.76,10.58-7.46,16.07-11.07,4.06,3,14.82,7.2,36.87-5.56,1.18-.68,2.39-1.41,3.64-2.19l-2.21-3.42c-20.15,12.66-30.04,10.64-34.07,8.41,8.71-5.58,17.76-10.97,27.16-16.12,3.98.25,20.76.88,32.15-5.7,2.5-1.45,4.74-3.24,6.52-5.46l-3.54-2.22c-5.92,7.37-19,8.99-27.36,9.23,9.46-4.95,19.27-9.65,29.44-14.07l-1.47-3.8c-13.24,5.76-26.15,12.09-38.7,19.01,10.32-10.41,23.1-17.1,29.24-20.32,1.62-.84,2.68-1.4,3.34-1.83l-2.3-3.36c-.43.28-1.56.87-2.87,1.56-7.92,4.15-26.41,13.83-37.85,29.86-4.91,2.86-9.76,5.82-14.56,8.86,2.13-6.29,7.36-18.64,17.71-27.47l-2.85-2.93c-15.44,13.16-20.19,32.6-20.54,34.07-8.54,5.6-16.9,11.48-25.07,17.64l.07-.37s.04,0,.11,0c-.09-.01-.54-.1-.79-.82-.58-1.61-.95-8.83,18.78-34.05l-3.6-2.17c-15.44,19.74-21.98,32.67-19.4,38.41.33.75.78,1.31,1.26,1.72-5.3,4.07-10.51,8.26-15.64,12.58-.71-7.02.49-26.15,25.11-57.88l-3.61-2.15c-28.95,37.34-26.95,58.14-25.67,63.58-3.05,2.63-6.08,5.3-9.07,8.01-.92-9.72-2.46-35.12,4.67-49.44l-4.12-1.33c-8.7,17.44-5.57,48.39-4.82,54.68-1.43,1.33-2.86,2.67-4.28,4.03-4.06-7.1-15.55-29.55-7.72-44.45l-4.08-1.41c-9.32,17.76,4.58,43.07,8.29,49.25-1.48,1.43-2.95,2.88-4.4,4.33-.7.7-1.4,1.4-2.09,2.11-4.58-5.79-17.82-24.63-11.3-41.91l-4.31-.9c-7.57,20.06,7.78,40.76,12.26,46.22-1.87,1.92-3.73,3.86-5.57,5.83-6.41-10.88-18.56-34.21-16.34-43.29l-4.47-.39c-2.98,12.18,13.26,40.35,17.43,47.3-1.18,1.27-2.35,2.55-3.51,3.85-2.4-3.53-7.21-10.73-11.66-18.34-11.74-20.03-10.01-23.81-9.78-24.18l-3.85-1.79c-1.74,2.69-2.22,8.34,9.54,28.39,5,8.54,10.44,16.58,12.5,19.57-.76.85-1.51,1.71-2.26,2.58-10.94-13.14-26.28-34.28-25.31-40.84h-4.54c-1.5,10.02,20.97,37.62,26.71,44.48-.49.58-1,1.17-1.49,1.76-5.37-3.34-22.56-15.52-29.3-37.88l-4.43,1.64c7.11,23.57,24.75,36.14,30.72,39.81-1.06,1.27-2.11,2.55-3.16,3.84-2.52-2.02-10.45-8.44-18.05-15.46-17.25-15.95-16.55-19.89-16.41-20.29l-4.36-.77c-1,2.92.07,8.31,17.34,24.27,8.04,7.43,16.43,14.18,18.56,15.88-.68.84-1.35,1.69-2.02,2.54-14.57-9.69-35.94-25.96-36.76-32.34l-4.55,1.05c1.23,9.52,30.11,29.39,38.46,34.95-.52.66-1.05,1.34-1.56,2.01-7.28-2.3-26.46-9.84-38.7-28.18l-3.99,2.57c12.53,18.77,31.47,26.69,39.82,29.39-1.17,1.55-2.32,3.11-3.48,4.69-19.65-11.37-39.08-25.53-38.75-30.42l-4.58.3c-.2,2.92,1.81,8.36,21.39,21.73,7.77,5.3,15.65,10.02,19.23,12.11-1.35,1.87-2.69,3.76-4.02,5.65-14.57-9.67-36.14-26.07-36.97-32.49l-4.56,1.06c1.25,9.69,31.17,30.11,38.89,35.23-.44.64-.89,1.29-1.33,1.94-6.7-2.04-26.73-9.46-39.35-28.4l-3.99,2.57c13.01,19.51,32.94,27.28,40.74,29.69-.82,1.22-1.63,2.44-2.44,3.67-16.19-7.5-39.1-19.87-40.88-25.79l-4.44,1.64c2.61,8.62,31.95,22.94,42.82,27.98-.96,1.49-1.91,2.97-2.85,4.47-16.19-7.29-41.83-20.82-43.73-27.09l-4.43,1.63c2.9,9.6,38.98,26.28,45.74,29.33-.36.59-.73,1.17-1.09,1.77-6.01-.81-28.63-4.94-45.07-22.34l-3.63,3.03c16.49,17.46,38.31,22.18,46.23,23.36-1.04,1.72-2.08,3.46-3.1,5.2-21.97-8.42-44.54-19.81-44.99-24.68l-4.57.91c.26,2.86,3.13,7.86,25.01,18.18,9.44,4.46,18.92,8.22,22.26,9.52-1.14,1.98-2.28,3.97-3.4,5.97-16.23-7.35-41.27-20.63-43.14-26.83l-4.44,1.64c2.86,9.43,37.77,25.71,45.37,29.15-.35.63-.7,1.26-1.04,1.89-6.44-.91-28.58-5.18-44.76-22.3l-3.63,3.03c16.47,17.42,38.23,22.16,46.18,23.34-.44.82-.88,1.64-1.3,2.46-17.39-5.17-44.95-15.18-47.74-21.04l-4.24,2.13c4.21,8.84,41.67,20.45,49.88,22.91-.34.65-.68,1.31-1.02,1.96-6.96-.14-29.55-1.77-48.05-16.3l-3.23,3.39c18.52,14.54,40.38,16.83,49.15,17.13-.89,1.76-1.75,3.49-2.6,5.22-23.05-5.53-46.75-13.73-47.87-18.35l-4.49,1.45c.67,2.76,4.27,7.27,27.81,14.68,9.16,2.88,18.28,5.22,22.58,6.27-.98,2.05-1.94,4.07-2.88,6.08-17.42-5.3-43.13-14.82-45.82-20.46l-4.24,2.13c3.97,8.33,37.49,19.13,48.19,22.39-.38.8-.74,1.61-1.1,2.42-8.48-.39-29.14-2.78-46.29-16.24l-3.23,3.39c17.53,13.77,38.07,16.55,47.64,17.06-.88,1.99-1.74,3.96-2.57,5.91-17.21-2.98-42.84-9.24-45.56-14.91l-4.94,2.5c4.2,8.77,36.56,15.15,48.46,17.22-.7,1.67-1.38,3.32-2.04,4.97-22.77-3.75-47.43-10.36-48.79-14.87l-5.17,1.92c.87,2.84,4.79,7.3,28.82,13.06,9.57,2.29,19.04,4,23.21,4.7-.68,1.72-1.34,3.41-1.98,5.08-4.27-.85-15.26-3.11-26.24-5.99-25.97-6.81-27.69-10.71-27.79-11.09,0,.02,0,.04,0,.07l-5.3-.08c-.59,3.62,2.51,8.3,29.9,15.59,11.44,3.04,23.1,5.44,27.6,6.33-.73,1.94-1.42,3.84-2.09,5.7l-.63.97s.09.04.24.11c-11.04,30.79-15.12,50.91-15.19,51.27Z"/>
  </g>
  <g id="Chair">
    <polygon class="cls-10" points="1748.83 775.99 1748.8 776 1745.61 775.56 1748.83 775.99"/>
    <path class="cls-10" d="M1852.8,731l-37,9-12.05,19.17-59.16-7.13-47.72,11.8,3.67,6.12,4.79,9.13h3.41v-8.05l76.39,10.05-1.32,9.69,8.57,1.22,4.57-10.91,31.79-10.59-4.35,8.59h4.62l8.68-11.58,22.04-35.51-6.93-1ZM1747.05,755.6l1.01.12-1.02.27v-.39ZM1710.93,765.71l-4.43-.6,36.34-9.34.46,1.22-32.36,8.72h-.01ZM1717.21,766.54l26.76-7.82,3.04-.27.02-.63,5.43-1.59,2.77.32-33.26,10.63-4.76-.64ZM1726.39,767.76l1.36.15,31.44-10.81-3.62-.5,6.04.7-30.86,11.04-4.36-.58ZM1735.65,768.99l29.72-11.25,2.23.26-27.99,11.52-3.96-.53ZM1752.01,771.17h-.04s-3.9-.53-3.9-.53h-.01l-4.09-.55,27.51-11.64,3.11.37-26.52,11.82,3.94.53,25.68-11.99,2.24.26-24.38,12.2-3.54-.47ZM1759.2,772.13l23.7-12.35,2.2.26-23.48,12.4-2.42-.31ZM1765.37,772.95l22.89-12.54,3,.35-22.71,12.6-3.18-.41ZM1772.45,773.89l22.12-12.73,2.18.25-20.38,12.99-3.92-.51ZM1795.62,772.11l-6.31,4.02-2.06-.28,10.92-7.79-2.55,4.05ZM1801.03,763.5l-17.2,11.9-3.86-.52,19.88-13.11,2.12.24-.94,1.49Z"/>
    <polygon class="cls-10" points="1718.28 794.44 1760.25 550.33 1767.27 550.33 1725.48 797.17 1718.28 794.44"/>
  </g>
  <g id="ClosedBrella">
    <path class="cls-7" d="M1761.04,558.63l-63.99,138.74s8.03-5.4,9.23,0c0,0,1.2-3.08,6.18-1.54s2.49,3.85,2.49,3.85c0,0,3.74-3.08,7.47-2.31s3.74,3.85,3.74,3.85c0,0,3.74-3.08,7.47-2.31s4.75,4.01,4.75,4.01c0,0,1.47-3.24,6.46-3.24s7.47,3.85,7.47,3.85c0,0,0-4.62,3.74-4.62s7.34,4.62,7.34,4.62c0,0,1.38-3.85,5.12-4.62s3.74,4.62,3.74,4.62v-155.7l-8.72,1.54-2.49,9.25Z"/>
  </g>
  <g id="OpenBrella">
    <path class="cls-4" d="M1828.64,636.16c-12.87,9.19-24.28-5.24-24.28-5.24-6.27,9.6-30.21,2.82-30.21,2.82-22.04,8.32-34.1-6.31-34.1-6.31-9.38,11.13-28.17-6.47-28.17-6.47-17.04,9.67-25.1-1.7-25.1-1.7-16.6,8.3-29.74-5.46-29.74-5.46-17.42,9.62-26.26-7.33-26.26-7.33-7.37,12.02-21.72-.74-21.72-.74l1.19-19.25,88.56-19.49,60.06-25,11.35.7,53.46,43.24,66.61,32.82-1.3,21.13s-19.44,4.09-31.11-1.92c-2.75-1.42-15.93,12.74-29.23-1.8Z"/>
  </g>
</svg>