<?xml version="1.0" encoding="UTF-8"?>
<svg xmlns="http://www.w3.org/2000/svg" viewBox="0 0 281.24 255.17">
  <defs>
    <style>
      .cls-1 {
        fill: #cf383b;
      }

      .cls-2 {
        fill: #d1383c;
      }

      .cls-3 {
        fill: #e2e6eb;
      }
    </style>
  </defs>
  <g id="Chair">
    <polygon class="cls-3" points="139.78 233.99 139.75 234 136.56 233.56 139.78 233.99"/>
    <path class="cls-3" d="M243.75,189l-37,9-12.05,19.17-59.16-7.13-47.72,11.8,3.67,6.12,4.79,9.13h3.41v-8.05l76.39,10.05-1.32,9.69,8.57,1.22,4.57-10.91,31.79-10.59-4.35,8.59h4.62l8.68-11.58,22.04-35.51-6.93-1ZM138,213.6l1.01.12-1.02.27v-.39ZM101.88,223.71l-4.43-.6,36.34-9.34.46,1.22-32.36,8.72h-.01ZM108.16,224.54l26.76-7.82,3.04-.27.02-.63,5.43-1.59,2.77.32-33.26,10.63-4.76-.64ZM117.34,225.76l1.36.15,31.44-10.81-3.62-.5,6.04.7-30.86,11.04-4.36-.58ZM126.6,226.99l29.72-11.25,2.23.26-27.99,11.52-3.96-.53ZM142.96,229.17h-.04s-3.9-.53-3.9-.53h-.01l-4.09-.55,27.51-11.64,3.11.37-26.52,11.82,3.94.53,25.68-11.99,2.24.26-24.38,12.2-3.54-.47ZM150.15,230.13l23.7-12.35,2.2.26-23.48,12.4-2.42-.31ZM156.32,230.95l22.89-12.54,3,.35-22.71,12.6-3.18-.41ZM163.4,231.89l22.12-12.73,2.18.25-20.38,12.99-3.92-.51ZM186.57,230.11l-6.31,4.02-2.06-.28,10.92-7.79-2.55,4.05ZM191.98,221.5l-17.2,11.9-3.86-.52,19.88-13.11,2.12.24-.94,1.49Z"/>
  </g>
  <g id="Stand">
    <polygon class="cls-3" points="109.23 252.44 151.2 8.33 158.22 8.33 116.43 255.17 109.23 252.44"/>
  </g>
  <g id="Umbrella">
    <path class="cls-2" d="M152,16.63l-63.99,138.74s8.03-5.4,9.23,0c0,0,1.2-3.08,6.18-1.54s2.49,3.85,2.49,3.85c0,0,3.74-3.08,7.47-2.31s3.74,3.85,3.74,3.85c0,0,3.74-3.08,7.47-2.31s4.75,4.01,4.75,4.01c0,0,1.47-3.24,6.46-3.24s7.47,3.85,7.47,3.85c0,0,0-4.62,3.74-4.62s7.34,4.62,7.34,4.62c0,0,1.38-3.85,5.12-4.62s3.74,4.62,3.74,4.62V5.84l-8.72,1.54-2.49,9.25Z"/>
  </g>
  <g id="OpenUmbrella">
    <path class="cls-1" d="M219.59,94.16c-12.87,9.19-24.28-5.24-24.28-5.24-6.27,9.6-30.21,2.82-30.21,2.82-22.04,8.32-34.1-6.31-34.1-6.31-9.38,11.13-28.17-6.47-28.17-6.47-17.04,9.67-25.1-1.7-25.1-1.7-16.6,8.3-29.74-5.46-29.74-5.46-17.42,9.62-26.26-7.33-26.26-7.33-7.37,12.02-21.72-.74-21.72-.74l1.19-19.25,88.56-19.49L149.81,0l11.35.7,53.46,43.24,66.61,32.82-1.3,21.13s-19.44,4.09-31.11-1.92c-2.75-1.42-15.93,12.74-29.23-1.8Z"/>
  </g>
</svg>